<?xml version="1.0" standalone="no"?>
<!DOCTYPE svg PUBLIC "-//W3C//DTD SVG 20010904//EN"
 "http://www.w3.org/TR/2001/REC-SVG-20010904/DTD/svg10.dtd">
<svg version="1.0" xmlns="http://www.w3.org/2000/svg"
 width="1667.000000pt" height="1667.000000pt" viewBox="0 0 1667.000000 1667.000000"
 preserveAspectRatio="xMidYMid meet">
<metadata>
Created by potrace 1.11, written by Peter Selinger 2001-2013
</metadata>
<g transform="translate(0.000000,1667.000000) scale(0.100000,-0.100000)"
fill="#000000" stroke="none">
<path d="M8058 15225 c-2 -2 -61 -6 -133 -9 -71 -4 -146 -9 -165 -11 -19 -2
-68 -6 -108 -9 -41 -4 -88 -9 -105 -11 -18 -3 -52 -7 -77 -10 -98 -10 -151
-17 -290 -42 -80 -13 -158 -27 -175 -30 -16 -2 -89 -17 -160 -33 -113 -24
-204 -48 -457 -118 -41 -12 -58 -21 -58 -33 0 -15 10 -14 89 12 48 15 99 30
112 33 13 2 71 16 129 30 58 15 148 36 200 47 52 11 104 22 115 25 11 2 34 6
50 9 17 3 53 10 80 15 61 12 82 15 211 34 87 13 194 26 429 50 254 27 904 27
1140 1 22 -2 72 -7 110 -10 39 -3 84 -8 100 -10 17 -2 53 -7 80 -10 28 -3 77
-10 110 -15 33 -5 78 -11 100 -15 87 -12 320 -57 344 -67 14 -5 27 -9 29 -9 1
1 13 1 27 1 18 0 25 -5 25 -20 0 -16 -5 -19 -22 -15 -61 13 -125 27 -148 31
-14 2 -45 8 -70 14 -47 9 -111 21 -145 25 -11 2 -33 6 -49 9 -16 3 -50 8 -75
12 -25 3 -57 8 -71 10 -14 2 -50 6 -80 10 -30 3 -66 7 -80 10 -14 2 -65 6
-115 9 -49 4 -101 8 -115 10 -95 16 -782 24 -905 11 -27 -3 -90 -8 -140 -11
-82 -5 -116 -8 -210 -20 -16 -2 -59 -7 -95 -10 -36 -3 -105 -12 -155 -20 -49
-8 -108 -16 -130 -20 -22 -3 -76 -12 -120 -21 -44 -8 -91 -17 -105 -20 -14 -2
-56 -11 -95 -20 -38 -9 -77 -17 -85 -19 -8 -2 -80 -20 -160 -40 -80 -20 -152
-38 -160 -40 -26 -7 -172 -52 -260 -81 -47 -15 -89 -29 -95 -30 -51 -11 -535
-205 -535 -214 0 -3 4 -11 9 -18 6 -10 41 0 157 47 180 72 296 116 389 146 39
12 122 39 185 60 185 59 517 141 730 179 14 2 48 9 75 15 28 6 68 13 90 16 22
3 65 10 95 15 30 5 78 12 105 15 28 3 61 7 75 9 14 3 61 7 104 11 43 4 86 8
95 10 9 1 64 6 123 10 58 3 121 8 140 11 90 12 619 6 838 -11 79 -6 204 -16
240 -20 98 -11 138 -16 156 -19 10 -2 44 -7 74 -11 79 -10 109 -14 165 -25 28
-5 64 -12 80 -14 127 -21 305 -61 305 -69 0 -5 -12 -6 -27 -2 -16 4 -39 9 -53
11 -14 3 -70 14 -125 25 -55 10 -111 21 -125 24 -51 10 -287 45 -340 50 -30 3
-64 8 -75 10 -20 4 -95 12 -190 20 -138 11 -372 19 -570 19 -203 0 -488 -10
-533 -19 -10 -2 -54 -6 -98 -10 -170 -13 -625 -80 -696 -101 -10 -3 -30 -8
-45 -10 -131 -24 -466 -109 -613 -156 -52 -17 -129 -41 -170 -54 -240 -77
-505 -187 -805 -334 -264 -130 -277 -138 -263 -160 11 -17 14 -16 67 13 319
173 732 349 1096 466 105 34 199 63 210 65 11 2 67 18 125 34 58 16 182 46
275 66 94 21 188 41 210 46 22 5 58 12 80 14 22 3 63 9 90 15 28 5 75 12 105
15 51 6 100 12 160 21 69 10 279 29 450 41 181 12 727 6 880 -11 25 -2 74 -7
110 -10 36 -3 79 -8 95 -10 17 -2 59 -7 95 -11 36 -3 74 -8 85 -10 10 -2 37
-6 60 -9 22 -3 92 -15 155 -26 63 -11 142 -24 175 -30 33 -5 76 -14 95 -19 19
-5 51 -12 70 -15 34 -6 50 -19 50 -42 0 -8 -16 -8 -60 3 -56 13 -74 16 -145
29 -16 3 -62 12 -102 20 -39 8 -88 17 -107 20 -20 3 -53 7 -73 10 -21 3 -49 7
-63 10 -36 6 -177 24 -230 29 -48 5 -150 15 -215 21 -248 23 -814 23 -1040 0
-22 -2 -74 -7 -116 -10 -42 -3 -86 -7 -97 -10 -12 -2 -52 -7 -89 -10 -37 -4
-75 -8 -83 -10 -8 -2 -42 -7 -75 -11 -33 -3 -63 -8 -66 -10 -4 -2 -27 -6 -50
-9 -62 -8 -375 -72 -494 -101 -240 -60 -555 -159 -555 -175 0 -14 11 -12 116
26 152 54 609 170 794 201 19 3 37 7 40 9 3 2 33 7 65 10 33 4 62 9 65 10 6 4
210 32 290 40 30 3 73 8 95 11 70 9 118 13 225 19 58 4 117 8 133 10 15 1 27
-2 27 -6 0 -5 -30 -9 -67 -10 -38 -1 -79 -2 -93 -4 -14 -1 -63 -6 -110 -10
-47 -4 -92 -8 -100 -10 -8 -1 -49 -6 -90 -10 -41 -4 -82 -9 -91 -10 -9 -2 -40
-6 -70 -10 -91 -12 -130 -18 -259 -42 -47 -8 -96 -17 -110 -19 -81 -14 -194
-39 -330 -75 -85 -22 -165 -42 -177 -45 -22 -4 -296 -90 -323 -101 -8 -4 -17
-7 -20 -8 -58 -14 -298 -105 -455 -172 -119 -50 -560 -266 -577 -282 -4 -3 -3
-12 1 -20 8 -12 17 -10 53 11 82 48 299 155 493 243 113 51 454 179 615 230
105 33 432 124 501 139 36 8 111 25 139 31 121 25 458 81 545 90 33 3 71 8 85
10 14 2 61 7 105 11 44 3 88 8 98 10 121 23 899 23 1072 0 17 -2 64 -7 105
-11 107 -9 168 -16 340 -40 63 -9 159 -25 213 -36 53 -10 110 -21 125 -24 38
-7 55 -11 157 -34 50 -12 101 -24 115 -27 57 -11 387 -118 397 -128 2 -2 -48
-40 -112 -85 -63 -45 -115 -85 -115 -90 0 -11 26 -22 65 -28 32 -4 129 34 332
130 18 8 75 -6 303 -76 154 -48 287 -84 295 -81 25 10 29 54 10 110 -29 85
-49 97 -281 177 l-208 72 -89 155 c-48 85 -96 163 -105 173 -21 20 -79 39 -87
28 -2 -5 17 -73 44 -152 l48 -144 -131 42 c-72 24 -171 55 -219 70 l-88 27
-35 59 c-19 32 -34 60 -34 61 0 2 10 6 22 10 20 5 21 7 8 19 -20 18 -157 60
-170 52 -17 -11 -11 -24 14 -31 25 -6 42 -42 27 -57 -4 -4 -64 3 -132 17 -143
29 -339 62 -419 71 -30 3 -62 8 -70 10 -8 2 -46 6 -83 10 -37 3 -76 8 -86 10
-10 2 -63 6 -117 10 -55 3 -121 8 -149 11 -53 5 -682 13 -687 9z m522 -229
c91 -3 181 -8 200 -10 19 -2 73 -7 120 -11 47 -3 99 -8 115 -10 17 -2 53 -7
80 -10 161 -16 395 -54 590 -95 50 -11 107 -22 128 -26 20 -3 40 -10 43 -16 3
-5 -5 -6 -18 -3 -54 12 -155 34 -178 39 -14 2 -70 13 -125 24 -55 11 -118 23
-140 26 -22 3 -103 14 -180 25 -77 11 -176 23 -220 26 -44 4 -91 8 -105 11
-67 10 -302 18 -547 19 -150 0 -273 3 -273 7 0 6 307 16 335 11 6 -1 84 -4
175 -7z"/>
<path d="M6252 14025 l3 -195 -32 -11 -31 -10 16 -40 c11 -29 19 -38 32 -34
14 4 24 -13 53 -87 l36 -93 -29 -9 -28 -8 16 -40 c14 -35 18 -38 44 -33 22 5
29 2 34 -12 3 -10 15 -37 25 -60 10 -24 19 -45 19 -48 0 -6 176 -468 191 -500
5 -11 59 -150 120 -310 61 -159 113 -293 115 -296 4 -7 198 62 210 74 5 5 -78
282 -151 502 -13 39 -63 192 -110 340 -48 149 -98 303 -111 344 -13 40 -24 75
-24 76 0 2 13 6 29 10 l29 6 -12 42 c-8 28 -18 41 -27 38 -8 -2 -21 -5 -30 -8
-12 -3 -23 17 -47 88 -27 80 -30 94 -17 103 12 9 13 17 3 49 -8 26 -16 36 -26
32 -51 -19 -56 -17 -117 66 -33 45 -70 93 -83 108 -12 14 -37 45 -55 68 -18
23 -36 43 -40 43 -4 0 -7 -88 -5 -195z"/>
<path d="M2835 13875 c-16 -9 -37 -24 -47 -35 -12 -15 -29 -20 -62 -20 -82 0
-138 -76 -111 -153 7 -20 9 -38 6 -39 -4 -2 -16 -16 -27 -33 -29 -42 -31 -116
-5 -160 l20 -35 -27 -6 c-54 -11 -92 -34 -122 -75 -26 -36 -35 -42 -72 -44
-70 -3 -124 -39 -168 -110 -29 -47 -32 -135 -8 -184 15 -29 16 -36 3 -60 -7
-15 -40 -44 -72 -64 -77 -49 -106 -74 -98 -87 3 -6 0 -7 -9 -4 -9 3 -16 2 -16
-2 0 -5 -18 -28 -39 -52 -101 -114 -152 -317 -121 -481 24 -125 108 -234 227
-293 64 -31 74 -33 173 -33 97 0 112 3 203 38 113 43 172 47 242 17 25 -11 49
-19 53 -17 9 2 86 -44 90 -55 2 -4 8 -8 12 -8 15 0 80 -47 74 -53 -3 -3 36
-26 87 -51 l92 -46 62 93 c79 118 90 138 78 146 -6 3 -38 31 -73 61 -34 30
-66 54 -71 53 -12 -4 -172 106 -183 127 -6 10 -23 33 -37 51 -39 49 -60 120
-69 239 -5 58 -11 114 -13 125 -13 56 -60 138 -104 182 -64 63 -87 79 -142 99
-25 9 -54 19 -64 22 -14 6 16 57 188 314 113 170 205 310 205 313 0 8 -47 36
-70 40 -13 2 -24 6 -26 7 -1 2 37 64 86 138 73 112 85 136 71 142 -29 12 -85
8 -116 -7z m170 -1750 c47 -31 85 -58 85 -61 0 -12 -33 -54 -43 -54 -9 0 -133
78 -160 101 -8 6 18 69 28 69 3 0 43 -25 90 -55z m17 -167 c-9 -15 -20 -28
-24 -28 -6 0 -145 89 -167 107 -2 1 4 18 14 36 l18 34 88 -60 88 -60 -17 -29z
m-108 2 c14 0 66 -44 66 -56 0 -6 -8 -21 -17 -33 l-18 -21 -52 35 c-29 19 -55
35 -58 35 -4 0 -13 7 -21 15 -8 8 -22 19 -31 24 -14 8 -14 11 5 32 12 12 22
27 22 32 0 5 22 -7 49 -27 27 -20 52 -36 55 -36z"/>
<path d="M11981 13720 l-133 -168 -75 -19 -74 -18 83 -55 c46 -30 96 -63 111
-74 l28 -19 -7 64 c-9 91 -10 90 35 164 23 37 41 69 41 71 0 5 89 155 112 187
11 16 18 30 16 32 -1 1 -63 -73 -137 -165z"/>
<path d="M8499 13814 c-6 -53 -57 -194 -70 -194 -4 0 -11 19 -15 43 l-7 42
-18 -40 c-15 -35 -25 -168 -20 -260 1 -6 49 -10 123 -10 l122 0 2 35 c6 120 6
179 -1 213 -7 37 -25 61 -25 35 -1 -7 -7 -26 -14 -43 -13 -30 -13 -30 -39 55
-14 47 -27 105 -29 130 l-3 45 -6 -51z"/>
<path d="M4034 13727 c-157 -106 -301 -212 -419 -306 -124 -99 -144 -130 -78
-122 7 1 51 -50 99 -114 l87 -115 -29 -23 c-15 -12 -34 -27 -42 -33 -24 -18
-10 -49 21 -49 23 1 43 -19 132 -132 91 -114 105 -136 99 -159 -7 -29 10 -47
37 -39 11 4 50 -36 130 -135 94 -116 113 -145 111 -169 -3 -29 15 -45 41 -35
7 2 60 -53 127 -133 63 -76 121 -144 128 -152 10 -10 10 -16 0 -28 -10 -12 -9
-18 6 -28 10 -8 24 -11 31 -9 14 6 18 2 91 -82 28 -32 83 -95 122 -140 39 -45
73 -93 76 -109 5 -24 29 -58 72 -100 6 -5 48 -53 95 -105 46 -52 112 -124 146
-160 34 -36 71 -78 84 -93 l22 -29 122 124 c127 129 210 207 264 249 l32 25
-161 231 c-105 150 -169 233 -183 237 -26 7 -252 340 -242 356 11 18 -6 51
-23 47 -12 -2 -46 41 -123 158 -92 139 -106 164 -101 193 3 22 0 32 -9 33 -8
1 -20 2 -27 3 -10 1 -102 129 -102 142 0 2 -24 41 -54 86 -41 64 -51 87 -43
99 15 24 1 51 -24 47 -18 -2 -36 21 -111 144 -79 131 -87 149 -76 167 11 17
10 23 -4 37 -15 16 -19 15 -54 -5 -20 -12 -40 -18 -44 -14 -4 4 -37 59 -74
122 -53 91 -64 116 -55 128 10 11 9 17 -3 29 -13 13 -24 9 -94 -39z m57 -99
c30 -23 119 -158 119 -181 0 -10 -37 -38 -72 -55 -13 -6 -101 141 -113 190
-19 69 8 88 66 46z m-141 -83 c7 -8 18 -15 24 -15 6 -1 35 -39 64 -85 48 -76
52 -86 39 -100 -9 -8 -18 -15 -22 -15 -4 0 -13 -7 -22 -15 -8 -9 -19 -15 -23
-13 -15 6 -116 164 -112 176 2 7 -1 18 -6 25 -14 18 4 57 26 57 11 0 25 -7 32
-15z m-117 -102 c21 -16 59 -61 86 -102 l50 -74 -41 -33 -42 -32 -58 83 c-32
46 -58 88 -57 92 1 4 -1 20 -5 36 -5 17 -4 33 4 42 17 20 21 19 63 -12z m-137
-87 c3 -8 13 -16 22 -18 9 -3 42 -41 73 -85 l56 -80 -31 -25 c-17 -13 -36 -27
-43 -31 -12 -7 -127 143 -128 166 0 7 -4 22 -9 35 -9 27 7 52 36 52 10 0 21
-6 24 -14z m611 -6 c10 -11 22 -20 28 -20 5 0 40 -49 76 -108 l67 -107 -50
-33 c-27 -19 -51 -32 -52 -30 -1 2 -30 47 -65 100 -34 53 -64 107 -65 121 -2
13 -6 29 -10 36 -5 7 -5 23 -2 37 8 30 49 33 73 4z m-152 -100 c10 -11 24 -20
31 -20 8 0 23 -17 34 -37 11 -21 41 -66 65 -101 25 -35 45 -67 45 -72 0 -10
-89 -74 -94 -68 -34 42 -136 201 -136 212 0 8 -5 26 -11 39 -24 52 28 89 66
47z m-141 -111 c8 -12 18 -19 23 -16 14 9 154 -198 147 -217 -3 -9 -10 -16
-14 -16 -5 0 -22 -11 -38 -25 l-30 -25 -77 105 c-42 59 -75 109 -72 111 3 3
-1 20 -8 37 -16 39 -4 67 30 67 13 0 31 -9 39 -21z m-147 -109 c10 -11 23 -20
29 -20 7 0 46 -46 88 -101 l75 -102 -46 -37 -47 -37 -55 71 c-31 39 -63 80
-73 90 -10 11 -19 25 -19 30 -3 26 -5 32 -17 54 -11 20 -11 27 3 48 19 29 40
31 62 4z m660 -33 c10 -13 23 -22 28 -21 6 2 43 -49 84 -113 l74 -116 -24 -18
c-32 -24 -68 -43 -73 -38 -25 29 -146 222 -142 226 3 3 -1 17 -8 32 -29 56 22
97 61 48z m-137 -97 c6 -11 17 -20 24 -20 10 0 123 -154 159 -216 4 -6 -13
-25 -38 -43 l-44 -32 -78 111 c-43 61 -78 116 -78 123 -1 7 -5 24 -9 39 -5 16
-6 35 -2 43 8 22 53 19 66 -5z m-118 -113 c41 -35 178 -218 172 -229 -2 -3
-21 -20 -42 -37 l-39 -30 -83 110 c-45 60 -80 112 -77 116 4 3 0 15 -8 27 -18
25 -19 48 -3 64 19 19 40 14 80 -21z m-143 -101 c8 -9 17 -14 21 -11 8 5 176
-213 169 -219 -2 -2 -21 -18 -43 -35 l-38 -30 -66 82 c-37 45 -73 89 -81 99
-16 19 -41 85 -41 110 0 38 49 41 79 4z m644 -63 c4 -7 13 -13 20 -13 7 0 49
-56 93 -124 l82 -123 -42 -27 -41 -27 -17 23 c-10 13 -22 28 -26 33 -48 62
-125 184 -124 197 0 10 -3 20 -9 23 -15 10 -10 53 8 64 18 10 39 0 56 -26z
m-136 -83 c10 -11 22 -20 28 -20 11 0 54 -57 139 -183 l40 -59 -25 -19 c-55
-44 -51 -46 -138 72 -79 107 -118 186 -107 215 8 20 44 17 63 -6z m-124 -92
c12 -13 25 -22 29 -21 7 3 178 -222 178 -235 0 -7 -35 -37 -66 -55 -14 -8
-199 225 -188 236 3 3 -2 17 -11 30 -13 20 -14 30 -5 46 14 27 34 27 63 -1z
m-128 -98 c10 -11 23 -20 30 -20 6 0 52 -51 103 -114 l91 -115 -35 -30 c-19
-17 -38 -31 -43 -31 -12 0 -184 216 -187 235 -1 10 -7 22 -13 28 -15 15 -14
54 2 60 23 10 34 7 52 -13z m644 -103 c23 -18 79 -88 126 -157 l85 -123 -35
-24 c-18 -12 -36 -23 -39 -23 -2 0 -44 55 -93 123 -95 131 -125 195 -103 222
7 8 14 15 15 15 1 0 21 -15 44 -33z m-119 -82 c19 -14 76 -81 126 -148 98
-130 99 -134 43 -162 l-27 -15 -94 123 c-51 67 -93 127 -94 132 0 6 -6 22 -14
37 -14 30 -8 58 13 58 7 0 29 -11 47 -25z m-118 -83 c7 -11 19 -21 26 -23 7
-3 56 -58 107 -124 l94 -120 -31 -27 c-17 -16 -34 -28 -38 -28 -10 0 -200 235
-200 248 0 5 -6 22 -14 37 -8 15 -12 34 -9 41 8 20 50 17 65 -4z m-117 -92
c10 -11 24 -20 31 -20 7 0 17 -6 21 -14 4 -8 22 -29 38 -48 40 -45 145 -176
145 -181 0 -3 -16 -16 -35 -31 l-34 -26 -101 117 c-55 65 -100 120 -98 123 1
3 -6 19 -16 36 -11 18 -16 39 -13 48 9 22 40 20 62 -4z m662 -137 c21 -21 52
-55 67 -76 30 -42 28 -50 -22 -79 l-29 -18 -42 60 c-23 33 -40 60 -36 60 3 0
-2 14 -10 31 -35 66 11 80 72 22z m-137 -68 c13 -14 25 -23 28 -20 2 2 24 -21
49 -53 l44 -56 -23 -18 c-52 -41 -53 -41 -95 15 -45 60 -78 130 -69 146 12 19
41 12 66 -14z m-110 -89 c7 -9 17 -16 22 -16 11 0 21 -11 66 -67 l32 -42 -36
-27 -36 -28 -43 45 c-24 24 -44 51 -45 59 0 8 -7 24 -15 34 -18 24 -20 63 -2
69 15 5 39 -6 57 -27z m-108 -92 c15 -12 31 -24 35 -26 4 -1 25 -23 45 -46
l37 -44 -36 -31 -35 -31 -48 51 c-27 28 -46 54 -43 57 4 3 -1 14 -9 23 -22 25
-27 45 -16 65 10 20 30 15 70 -18z"/>
<path d="M2312 13722 c-19 -10 -41 -31 -50 -47 -22 -38 -27 -42 -74 -49 -50
-8 -113 -70 -128 -125 -7 -27 -18 -42 -33 -47 -34 -10 -85 -52 -101 -82 -28
-54 -24 -127 8 -175 22 -32 23 -36 8 -51 -25 -25 -23 -127 4 -162 11 -15 24
-29 30 -30 8 -2 476 694 490 729 3 10 -9 21 -39 36 -53 26 -73 26 -115 3z"/>
<path d="M9562 13662 c-7 -21 -30 -67 -52 -101 -22 -34 -37 -68 -34 -74 5 -8
3 -9 -4 -2 -6 6 -13 27 -15 48 -2 21 -6 40 -9 42 -2 3 -14 -14 -27 -37 -21
-41 -66 -237 -55 -247 2 -3 15 -6 27 -8 12 -2 63 -14 113 -26 l91 -23 27 110
c14 61 25 130 24 153 -2 24 -4 43 -5 43 -1 0 -13 -19 -27 -41 l-24 -42 -8 49
c-5 27 -8 82 -8 122 0 39 -1 72 -2 72 0 0 -6 -17 -12 -38z"/>
<path d="M7395 13613 c-38 -7 -125 -24 -192 -39 l-121 -27 -6 -56 c-4 -31 -9
-73 -12 -94 -7 -45 -14 -44 141 -7 114 27 179 40 280 55 79 11 78 10 43 73
-67 119 -53 109 -133 95z"/>
<path d="M5315 13525 c16 -40 8 -78 -21 -104 -20 -17 -23 -22 -9 -17 89 37
150 -22 129 -124 -11 -54 -4 -84 23 -99 15 -7 31 -1 76 26 49 29 57 38 51 57
-8 27 -41 53 -78 60 -38 8 -64 32 -82 74 -16 40 -9 58 38 97 l33 26 -32 -15
c-47 -23 -80 -20 -110 12 -20 21 -24 22 -18 7z"/>
<path d="M11659 13463 c-12 -21 -24 -40 -25 -42 -2 -1 -13 4 -26 13 -12 9 -26
16 -30 16 -4 0 -23 -23 -42 -51 -19 -29 -37 -46 -41 -40 -3 6 -16 11 -28 11
-17 0 -34 -19 -72 -82 -28 -45 -59 -96 -70 -114 -104 -168 -127 -214 -107
-214 4 0 13 -4 21 -9 16 -11 55 53 -443 -732 -125 -198 -226 -361 -225 -363 2
-1 28 -19 57 -39 28 -20 55 -37 60 -38 4 0 29 -17 57 -38 l49 -37 246 335
c135 185 304 416 375 514 89 122 134 177 145 174 8 -3 22 -8 31 -11 11 -5 34
18 84 86 38 51 73 98 78 103 46 57 127 171 127 180 0 5 -9 16 -21 23 -20 13
-19 14 17 63 l37 51 -29 23 -29 23 33 41 32 40 -42 28 c-24 15 -44 31 -46 36
-2 4 -8 7 -12 7 -5 0 -35 18 -66 40 -32 22 -61 40 -65 40 -4 0 -18 -17 -30
-37z"/>
<path d="M7430 13419 c-57 -10 -163 -32 -236 -49 l-132 -31 27 -104 c15 -57
29 -107 32 -110 3 -3 57 7 120 21 63 14 123 27 134 28 11 2 34 6 50 9 30 7 51
10 130 23 22 3 42 8 44 10 4 4 -14 151 -25 202 -5 26 -5 26 -144 1z"/>
<path d="M8369 13356 c-4 -86 -4 -188 1 -194 9 -13 230 -11 231 1 1 12 6 95 8
134 1 22 4 23 74 18 168 -11 466 -50 567 -74 19 -4 38 -8 43 -9 4 -1 16 -2 28
-2 21 0 21 -7 4 -90 -16 -79 -16 -87 -3 -88 24 -2 159 -33 185 -43 38 -14 18
-29 -25 -17 -20 6 -69 18 -108 28 l-72 17 -16 -86 c-10 -47 -19 -96 -22 -108
-5 -19 0 -22 53 -33 51 -10 96 -21 141 -36 7 -2 11 -8 7 -14 -3 -5 -15 -6 -29
0 -12 4 -38 11 -57 14 -19 3 -52 10 -74 15 -25 6 -44 6 -51 0 -7 -5 -25 -7
-40 -4 -24 5 -109 20 -224 40 -14 3 -50 7 -80 11 -30 3 -66 7 -79 9 -21 4 -71
8 -211 20 -39 3 -42 4 -35 15 3 6 0 10 -7 11 -121 6 -208 6 -209 1 -1 -4 -3
-47 -5 -97 -1 -49 -3 -93 -3 -97 -1 -4 -7 -5 -15 -2 -12 5 -15 -10 -13 -88 l2
-93 60 -1 c33 -1 89 -3 125 -5 36 -2 70 -1 75 3 6 4 12 45 13 93 3 78 1 86
-15 83 -14 -2 -18 3 -17 27 1 17 2 47 3 69 l1 38 84 -6 c91 -7 100 -8 281 -32
130 -16 140 -18 230 -37 58 -12 60 -13 57 -42 -6 -63 -22 -105 -40 -105 -14 0
-20 -17 -33 -85 -14 -77 -14 -85 0 -89 72 -20 244 -56 247 -53 3 3 14 39 26
82 19 72 20 79 5 90 -15 11 -15 18 -4 64 7 29 17 51 25 51 31 0 218 -57 353
-106 l67 -25 -30 -82 c-17 -45 -34 -91 -38 -102 -17 -39 -21 -65 -15 -84 8
-25 155 -86 185 -76 20 6 47 56 123 227 l12 28 153 -75 c83 -40 152 -76 152
-78 0 -3 -12 -25 -26 -51 -17 -30 -32 -45 -42 -44 -12 2 -28 -19 -54 -67 -21
-38 -38 -75 -38 -80 0 -6 26 -24 58 -40 31 -17 59 -32 62 -35 7 -8 107 -60
114 -60 3 0 6 6 6 14 0 8 3 16 8 18 4 2 22 27 40 57 29 47 31 56 19 69 -13 12
-8 25 34 97 27 46 49 87 49 92 0 4 -41 30 -90 57 -50 27 -90 53 -90 58 0 14
18 9 70 -22 28 -17 69 -39 90 -50 l39 -20 37 63 c20 34 45 76 55 92 l18 31
-99 54 c-55 30 -100 57 -100 60 0 3 4 11 9 18 7 11 25 4 87 -31 44 -24 89 -49
101 -56 21 -11 25 -6 74 76 47 80 84 171 74 181 -2 2 -16 -8 -31 -22 -16 -14
-30 -24 -32 -22 -3 4 15 117 24 149 5 16 3 17 -13 9 -17 -10 -27 -18 -97 -81
l-28 -26 7 44 c6 35 5 42 -6 35 -29 -17 -64 -66 -108 -150 -53 -102 -87 -130
-196 -166 -72 -23 -207 -31 -267 -15 -23 6 -26 11 -19 30 5 12 4 31 -2 44 -10
22 -100 68 -156 79 -17 4 -31 12 -31 18 1 6 14 45 30 86 33 82 35 97 19 102
-7 2 -1 29 15 72 28 74 32 100 15 94 -6 -2 -26 -44 -45 -93 -27 -73 -31 -90
-19 -99 11 -9 6 -28 -26 -110 -21 -54 -40 -101 -42 -102 -9 -9 -155 148 -194
209 -69 105 -133 267 -133 335 0 29 -13 33 -180 66 -74 15 -154 31 -178 37
-24 5 -64 12 -90 15 -25 3 -49 7 -52 9 -3 2 -35 6 -70 10 -36 3 -72 8 -80 10
-8 2 -42 7 -75 10 -33 3 -76 7 -95 10 -39 4 -239 16 -337 20 -58 1 -63 0 -64
-19z m1231 -309 c11 -41 9 -56 -30 -198 -23 -85 -45 -159 -48 -165 -11 -19
-54 2 -48 23 6 20 46 170 51 193 19 86 51 197 56 194 3 -2 12 -23 19 -47z m54
-127 c20 -42 21 -36 -19 -170 -9 -30 -18 -63 -20 -74 -2 -10 -6 -21 -9 -23 -8
-8 -56 9 -56 21 0 18 74 286 80 286 3 0 13 -18 24 -40z m60 -220 l-25 -79 -27
12 c-15 6 -29 12 -31 14 -2 1 1 15 7 30 6 15 20 61 32 101 l21 73 24 -36 25
-36 -26 -79z m70 29 c25 -22 25 -28 4 -91 -14 -42 -15 -42 -52 -29 l-25 10 22
65 c11 37 22 66 24 66 2 0 14 -10 27 -21z m74 -72 c19 -21 21 -28 11 -55 -10
-28 -14 -31 -37 -26 -15 4 -29 8 -31 10 -6 5 21 94 29 94 3 0 16 -10 28 -23z
m40 -68 c-6 -16 -12 -28 -14 -26 -5 5 13 57 20 57 3 0 0 -14 -6 -31z m630 -57
c-22 -50 -105 -202 -110 -202 -4 0 -18 4 -33 10 l-25 10 39 78 c34 67 45 81
78 94 44 19 56 21 51 10z m-331 -42 c8 0 8 -6 0 -25 -13 -27 -38 -33 -56 -11
-17 21 -2 49 23 42 11 -3 26 -6 33 -6z m178 -60 c-34 -67 -36 -69 -60 -58 -29
13 -31 25 -8 73 11 23 26 38 43 41 14 3 30 7 35 9 24 8 23 1 -10 -65z m-75 52
c0 -10 -42 -82 -48 -82 -4 0 -15 7 -26 15 -16 12 -17 18 -7 43 10 24 18 29 47
28 18 -1 34 -2 34 -4z"/>
<path d="M7884 13274 c-71 -6 -139 -14 -150 -18 -19 -6 -90 -123 -80 -133 4
-4 48 0 216 22 19 3 86 8 149 11 127 7 141 8 143 15 4 7 -76 109 -87 111 -31
4 -73 3 -191 -8z"/>
<path d="M6214 13199 c-1 -21 2 -36 7 -34 16 10 37 -36 33 -74 -2 -26 1 -43
11 -51 21 -17 19 -34 -9 -74 -36 -53 -40 -95 -16 -162 11 -32 23 -61 28 -66 4
-4 36 6 71 22 35 17 65 29 67 27 2 -2 -24 -17 -59 -33 -34 -16 -64 -33 -65
-37 -7 -14 -144 -78 -160 -75 -12 3 -8 9 16 21 38 21 38 21 12 75 -11 22 -20
46 -20 52 0 5 -5 10 -11 10 -18 0 -154 -71 -289 -150 -8 -5 -40 -23 -70 -41
-30 -17 -89 -54 -131 -82 l-76 -50 30 -46 c40 -59 47 -63 75 -45 12 8 27 12
33 8 6 -3 -20 -27 -57 -52 -62 -41 -69 -44 -79 -27 -60 101 -118 140 -198 132
-34 -3 -50 0 -54 9 -4 10 -10 10 -28 2 -20 -9 -22 -14 -14 -29 7 -14 5 -28 -7
-50 -30 -60 -20 -118 34 -192 l35 -48 26 23 c14 13 35 30 46 38 11 7 0 -4 -24
-26 l-43 -39 21 -25 c18 -21 22 -23 31 -10 8 12 9 9 5 -10 -4 -18 1 -32 17
-50 13 -14 43 -51 67 -83 24 -31 46 -57 48 -57 3 0 36 23 73 50 68 51 189 134
264 181 23 14 67 43 100 63 32 21 54 31 49 22 -5 -9 -56 -46 -115 -83 -58 -38
-164 -111 -236 -163 l-130 -94 45 -56 c60 -75 61 -76 117 -147 28 -36 53 -60
60 -56 6 4 58 41 116 83 58 42 123 87 145 100 22 14 63 41 90 62 28 21 53 38
57 38 4 0 52 26 105 58 107 63 272 145 428 213 55 23 102 44 104 46 4 2 -47
135 -80 209 -10 23 -21 54 -25 68 -3 14 -10 28 -14 31 -14 9 -263 -99 -429
-187 -52 -27 -101 -48 -109 -46 -15 3 361 194 469 237 l55 23 -42 105 c-23 57
-44 107 -47 109 -3 3 -16 1 -29 -6 l-23 -11 22 19 23 20 -25 67 c-40 111 -96
165 -170 165 -20 0 -35 6 -39 15 -4 11 -14 14 -33 10 l-28 -5 28 12 c33 15 34
21 2 46 -13 11 -30 32 -37 47 -11 25 -10 29 12 47 l24 19 -26 -6 c-19 -5 -29
-2 -40 13 -12 18 -13 17 -14 -19z m271 -384 c-27 -13 -54 -24 -60 -24 -5 1 13
11 40 24 28 13 55 24 60 24 6 -1 -12 -11 -40 -24z m25 -64 c0 -5 -10 -11 -22
-14 -22 -6 -22 -6 -4 8 23 17 26 18 26 6z m-60 -25 c0 -2 -7 -6 -15 -10 -8 -3
-15 -1 -15 4 0 6 7 10 15 10 8 0 15 -2 15 -4z m-60 -26 c0 -5 -5 -10 -11 -10
-5 0 -7 5 -4 10 3 6 8 10 11 10 2 0 4 -4 4 -10z m-320 -82 c0 -13 -53 -48 -71
-48 -20 0 -7 17 29 38 44 26 42 25 42 10z m-250 -147 c0 -11 -62 -51 -79 -51
-21 0 -11 15 27 37 41 25 52 27 52 14z m-360 -224 c0 -2 -10 -12 -22 -23 l-23
-19 19 23 c18 21 26 27 26 19z m80 -41 c0 -3 -4 -8 -10 -11 -5 -3 -10 -1 -10
4 0 6 5 11 10 11 6 0 10 -2 10 -4z m-41 -29 c-2 -1 -26 -20 -53 -42 -36 -28
-45 -33 -37 -17 6 12 15 22 20 22 4 0 21 11 37 25 15 13 30 22 33 20 2 -3 2
-6 0 -8z"/>
<path d="M5523 13192 c-57 -37 -56 -36 -34 -72 l19 -33 -29 -31 c-52 -55 -83
-132 -86 -212 -3 -105 20 -170 97 -280 21 -31 41 -61 42 -66 2 -6 42 14 88 44
107 70 257 157 380 221 52 27 99 53 104 58 14 13 -92 200 -138 242 -92 86
-211 118 -334 91 -18 -3 -27 3 -43 31 -12 19 -22 35 -22 34 -1 0 -21 -12 -44
-27z"/>
<path d="M7500 13175 c-36 -7 -78 -15 -95 -18 -16 -2 -85 -17 -152 -33 -86
-19 -123 -32 -123 -42 0 -13 11 -59 41 -173 l9 -36 62 14 c87 19 239 50 323
66 l70 13 -2 35 c-2 19 -8 69 -14 112 -13 88 -6 84 -119 62z"/>
<path d="M10195 13170 c-26 -10 -39 -26 -53 -65 -5 -16 -31 -84 -56 -150 -46
-120 -50 -145 -22 -145 9 0 41 -11 72 -25 32 -14 61 -22 65 -18 17 19 129 298
129 322 0 16 -8 35 -17 43 -30 25 -96 46 -118 38z"/>
<path d="M8088 13145 c-2 -1 -52 -5 -113 -9 -60 -3 -119 -8 -131 -10 -11 -2
-47 -7 -79 -10 -83 -9 -89 -16 -81 -101 6 -64 13 -115 21 -155 2 -8 4 -21 4
-28 1 -9 17 -11 64 -7 34 4 69 8 77 10 14 4 87 10 255 20 33 2 62 4 65 4 3 1
4 52 2 114 -3 112 -15 166 -36 168 -6 0 -19 2 -28 4 -9 2 -18 2 -20 0z"/>
<path d="M8369 13131 c-1 -3 -2 -52 -3 -108 l-1 -103 55 -1 c30 0 79 -2 109
-2 62 -2 56 -13 64 126 l5 87 -31 1 c-167 5 -197 5 -198 0z"/>
<path d="M7570 12930 c-19 -5 -55 -11 -80 -14 -56 -8 -289 -62 -296 -69 -8 -8
47 -217 58 -217 4 0 54 11 111 24 56 14 118 27 137 30 162 27 175 31 174 51
-2 19 -4 37 -20 153 -7 57 -11 59 -84 42z"/>
<path d="M7012 12892 c-10 -7 -10 -15 1 -42 10 -22 16 -28 20 -19 4 8 4 2 1
-13 -4 -16 -2 -28 4 -28 21 0 49 -124 31 -135 -12 -8 -49 22 -49 41 0 7 6 15
13 17 7 3 5 6 -5 6 -12 1 -15 6 -11 17 3 9 0 20 -8 25 -9 5 -9 9 -2 9 6 0 10
8 8 18 -2 17 -31 19 -48 3 -12 -11 13 -72 26 -64 7 4 6 -1 -2 -10 -11 -14 -11
-17 0 -17 8 0 20 -14 28 -31 11 -26 18 -30 41 -27 27 4 28 2 56 -91 16 -52 27
-106 26 -118 -2 -13 2 -38 8 -57 9 -27 15 -33 31 -29 17 5 19 11 13 37 -3 17
-14 45 -24 61 -15 26 -26 58 -66 197 -4 13 -1 16 10 12 29 -11 41 47 33 164
-2 25 -22 29 -61 9 -25 -14 -26 -30 -1 -21 12 5 32 -48 27 -69 -2 -5 2 -6 7
-3 13 8 23 -27 15 -48 -13 -34 -36 -10 -59 61 -12 39 -19 76 -16 82 4 5 6 23
6 38 -2 29 -27 41 -53 25z m35 -34 c-3 -8 -6 -5 -6 6 -1 11 2 17 5 13 3 -3 4
-12 1 -19z"/>
<path d="M7880 12813 c-164 -17 -170 -18 -165 -43 6 -31 35 -241 37 -272 1
-16 5 -28 8 -28 3 0 43 5 90 10 87 11 171 18 270 25 30 2 58 4 61 4 6 1 3 184
-5 286 l-2 30 -84 0 c-47 0 -141 -5 -210 -12z"/>
<path d="M10020 12784 c-14 -36 -12 -80 3 -93 8 -6 33 -17 56 -26 50 -17 73
-9 96 35 21 40 19 47 -12 58 -16 5 -52 19 -81 31 l-53 21 -9 -26z"/>
<path d="M12319 12732 c-68 -71 -252 -242 -260 -242 -4 0 -10 4 -14 9 -4 8
-75 -61 -92 -88 -1 -2 -21 3 -45 11 -58 20 -138 13 -198 -17 -90 -46 -90 -47
-2 -123 80 -69 156 -139 249 -230 l55 -52 17 22 c37 51 46 81 45 162 0 56 -5
90 -17 111 l-17 30 46 46 c28 29 42 49 35 53 -6 4 -11 11 -11 15 0 4 49 69
109 144 143 177 181 234 100 149z"/>
<path d="M7500 12660 c-214 -45 -250 -54 -250 -60 0 -3 13 -53 28 -111 l27
-105 150 32 c128 28 198 41 251 46 7 1 8 17 3 47 -16 106 -22 147 -21 164 1
23 -24 22 -188 -13z"/>
<path d="M5154 12594 c4 -10 -1 -25 -11 -37 -18 -19 -17 -20 4 -6 20 12 25 11
48 -11 15 -14 25 -34 25 -51 0 -35 12 -42 45 -27 34 15 28 38 -12 52 -50 17
-59 31 -45 68 8 21 8 28 1 21 -8 -8 -20 -8 -36 -2 -22 8 -24 7 -19 -7z"/>
<path d="M8118 12445 c-2 -2 -48 -6 -103 -9 -55 -3 -113 -8 -130 -11 -16 -2
-48 -6 -70 -9 -22 -2 -69 -9 -105 -15 -36 -6 -83 -13 -105 -16 -22 -4 -89 -17
-150 -31 -60 -14 -118 -27 -128 -29 -9 -2 -21 -6 -25 -9 -5 -3 -19 -7 -33 -9
-189 -35 -680 -231 -914 -365 -342 -196 -545 -339 -770 -541 -241 -218 -513
-531 -675 -780 -16 -23 -16 -23 -18 15 -5 76 -34 105 -242 248 -410 283 -456
313 -479 319 -25 6 -122 -10 -131 -22 -3 -3 -18 -12 -33 -20 -44 -23 -150
-115 -187 -162 -19 -24 -43 -53 -53 -64 -19 -21 -104 -145 -123 -180 -6 -11
-22 -40 -36 -65 -57 -104 -73 -160 -73 -260 0 -81 5 -108 33 -186 36 -103 35
-96 27 -259 -6 -113 -5 -123 17 -164 l23 -44 170 -53 c94 -29 235 -73 315 -98
80 -25 159 -46 175 -46 17 0 53 11 82 24 l52 25 -14 -37 c-17 -45 -81 -266
-88 -307 -3 -16 -17 -82 -31 -145 -21 -100 -34 -174 -51 -312 -2 -18 -7 -67
-10 -108 -4 -41 -9 -91 -11 -110 -6 -54 -6 -456 0 -540 27 -379 102 -743 227
-1100 97 -275 244 -582 390 -812 93 -145 237 -348 297 -416 11 -13 35 -42 54
-65 106 -132 327 -352 494 -492 100 -85 110 -92 167 -133 29 -20 54 -39 57
-43 3 -4 70 -49 150 -101 489 -320 1035 -534 1595 -627 33 -6 69 -12 80 -14
11 -3 52 -8 90 -12 39 -4 86 -9 105 -11 204 -23 721 -22 825 1 11 3 43 7 70 9
366 35 875 182 1260 365 163 77 516 279 545 311 3 3 25 18 50 34 43 28 200
143 210 155 3 3 28 24 55 46 195 156 414 379 609 620 31 39 63 78 71 88 8 9
15 21 15 26 0 5 3 11 8 13 11 5 139 197 212 317 79 132 215 403 273 546 87
212 193 564 222 735 3 19 10 51 15 70 5 19 11 53 15 75 3 22 10 67 15 100 9
61 16 128 30 270 8 86 6 607 -3 665 -3 19 -8 62 -12 95 -11 105 -16 142 -20
166 -3 13 -8 44 -11 69 -4 34 -49 248 -68 325 -6 23 -39 136 -63 215 -15 47
-28 90 -29 95 -8 34 -74 201 -121 303 -18 41 -33 76 -33 79 0 9 -128 260 -175
343 -259 456 -654 911 -1055 1213 -41 32 -80 62 -87 67 -25 21 -240 163 -277
184 -21 11 -46 26 -55 31 -130 80 -395 209 -574 279 -130 51 -313 115 -347
121 -3 0 -36 10 -75 22 -58 18 -117 32 -235 58 -86 19 -173 35 -210 40 -25 3
-56 7 -70 10 -24 5 -68 10 -160 20 -25 3 -61 8 -80 11 -35 6 -547 14 -552 9z
m542 -330 c52 -5 73 -7 165 -20 22 -3 58 -8 79 -10 79 -10 295 -55 381 -79
508 -142 898 -328 1296 -619 63 -46 123 -90 134 -99 11 -9 39 -32 63 -52 116
-95 327 -308 437 -441 22 -26 45 -53 50 -59 22 -23 144 -184 186 -246 184
-268 355 -605 460 -909 41 -119 98 -308 106 -351 2 -14 13 -63 23 -110 19 -87
45 -240 54 -320 3 -25 8 -65 11 -90 21 -180 21 -566 0 -725 -3 -22 -7 -67 -10
-100 -5 -50 -28 -190 -50 -310 -37 -193 -161 -587 -225 -715 -10 -19 -18 -38
-19 -42 -3 -15 -43 -104 -80 -178 -79 -159 -127 -241 -236 -405 -107 -160
-150 -218 -269 -361 -78 -93 -352 -362 -456 -448 -52 -43 -105 -86 -117 -97
-40 -33 -266 -186 -363 -244 -376 -229 -903 -426 -1280 -481 -19 -3 -57 -9
-85 -14 -27 -5 -74 -12 -104 -15 -30 -4 -63 -8 -73 -10 -130 -25 -702 -24
-833 1 -11 2 -45 7 -75 10 -30 3 -57 7 -60 9 -3 2 -26 6 -50 10 -38 5 -144 24
-215 39 -11 3 -56 14 -100 26 -44 12 -89 23 -100 26 -153 32 -574 201 -763
305 -31 17 -80 44 -109 60 -28 15 -91 54 -140 86 -48 32 -92 60 -98 62 -5 2
-12 7 -15 10 -3 3 -32 24 -65 46 -33 22 -65 44 -72 50 -6 5 -26 21 -44 35 -18
14 -60 47 -94 75 -33 27 -68 57 -79 65 -33 27 -249 243 -296 296 -110 125
-155 177 -169 197 -8 12 -18 24 -21 27 -3 3 -23 30 -45 60 -22 30 -42 57 -45
60 -9 8 -133 200 -184 284 -98 161 -237 450 -289 601 -8 22 -28 80 -45 128
-28 79 -67 210 -77 255 -2 9 -17 78 -33 152 -17 74 -33 158 -37 185 -4 28 -9
59 -11 70 -2 11 -7 44 -10 74 -3 30 -7 58 -9 61 -6 10 -19 271 -19 400 0 119
10 327 18 380 2 14 7 52 11 85 3 33 13 98 20 145 8 47 17 103 21 125 14 94
116 469 144 530 5 11 25 63 45 115 21 52 42 106 48 120 6 14 11 27 11 30 1 3
33 70 73 150 119 241 256 461 418 668 140 179 312 361 469 497 39 33 77 67 86
75 74 68 413 310 434 310 3 0 24 13 48 29 79 53 402 219 463 237 6 2 54 21
108 43 88 36 324 116 374 125 10 2 63 16 118 30 96 24 282 59 375 71 25 3 61
8 80 10 19 3 73 7 120 11 47 3 87 8 89 10 5 5 484 -5 551 -11z"/>
<path d="M8198 12075 c-2 -1 -57 -5 -123 -9 -66 -3 -129 -7 -140 -10 -11 -2
-47 -7 -80 -10 -94 -11 -121 -16 -255 -42 -170 -34 -228 -49 -449 -119 -470
-147 -935 -415 -1310 -755 -430 -390 -724 -794 -943 -1300 -42 -96 -57 -135
-116 -300 -21 -58 -79 -261 -92 -320 -25 -112 -49 -230 -54 -260 -5 -34 -23
-156 -31 -215 -25 -177 -26 -692 -1 -835 3 -14 7 -47 11 -75 11 -92 16 -119
36 -225 82 -420 259 -864 504 -1263 36 -58 200 -290 235 -331 124 -146 181
-209 294 -322 123 -123 271 -253 361 -320 22 -16 46 -35 54 -42 30 -29 333
-224 430 -278 324 -178 741 -332 1046 -388 150 -28 250 -43 335 -51 36 -4 71
-8 78 -10 6 -3 12 -1 13 3 7 60 10 58 -90 67 -72 6 -134 14 -196 26 -27 5 -66
11 -85 14 -60 7 -312 72 -431 111 -381 122 -801 346 -1124 598 -49 39 -92 73
-95 76 -3 3 -27 23 -55 45 -64 51 -301 287 -386 385 -419 481 -715 1096 -838
1740 -42 220 -55 380 -56 650 0 207 7 331 30 495 79 583 298 1156 624 1630
233 340 615 717 959 948 397 266 815 443 1297 548 153 34 334 61 495 75 250
21 671 4 885 -36 28 -5 65 -12 83 -15 198 -33 481 -116 716 -212 502 -204 929
-501 1306 -910 341 -369 622 -840 787 -1318 23 -68 82 -264 88 -295 2 -8 10
-45 19 -83 9 -37 18 -82 21 -100 3 -17 8 -39 10 -47 2 -8 7 -40 10 -70 4 -30
8 -57 10 -60 1 -3 6 -36 10 -73 3 -37 8 -76 10 -86 3 -19 13 -208 16 -313 2
-57 3 -58 31 -58 15 0 28 6 29 13 7 123 -17 409 -51 622 -16 94 -19 113 -51
240 -135 550 -394 1065 -757 1510 -190 232 -466 491 -717 672 -422 305 -1004
549 -1505 633 -69 12 -136 23 -150 25 -14 3 -59 7 -100 10 -41 3 -84 9 -95 12
-18 5 -451 13 -457 8z"/>
<path d="M8257 11954 c-1 -1 -56 -5 -122 -8 -238 -14 -475 -49 -680 -101 -33
-9 -68 -18 -78 -20 -78 -18 -363 -116 -471 -162 -187 -81 -445 -225 -634 -355
-581 -400 -1048 -987 -1306 -1640 -25 -65 -46 -122 -46 -128 0 -6 -4 -18 -10
-28 -20 -35 -112 -366 -125 -452 -2 -14 -11 -59 -19 -101 -8 -41 -18 -102 -21
-135 -3 -32 -8 -70 -10 -83 -26 -155 -27 -637 -1 -831 2 -14 7 -48 10 -75 46
-356 170 -762 334 -1095 398 -809 1071 -1436 1897 -1767 202 -81 427 -151 585
-182 30 -6 66 -14 80 -16 92 -19 87 -18 245 -38 66 -9 165 -19 220 -22 103 -7
393 -7 455 -1 19 2 72 7 118 11 46 3 91 8 101 10 10 2 42 6 72 10 245 29 654
140 864 234 22 10 69 31 105 47 440 192 899 530 1224 900 l36 41 -30 27 -30
26 -173 -173 c-153 -153 -302 -284 -407 -357 -19 -13 -37 -27 -40 -30 -8 -10
-195 -130 -292 -189 -72 -43 -243 -128 -413 -205 -99 -45 -329 -122 -483 -161
-131 -34 -151 -38 -224 -50 -18 -3 -40 -8 -48 -10 -8 -2 -33 -7 -55 -10 -23
-3 -50 -7 -60 -9 -27 -5 -133 -17 -235 -26 -83 -7 -505 -5 -545 4 -11 2 -56 7
-100 10 -44 4 -87 9 -95 11 -8 2 -37 6 -64 10 -28 3 -82 13 -120 21 -39 9 -82
18 -96 20 -229 44 -580 169 -831 294 -493 248 -983 668 -1282 1100 -156 226
-246 381 -347 600 -42 91 -57 130 -121 305 -52 144 -125 428 -144 563 -3 20
-8 48 -10 62 -3 14 -7 48 -11 75 -3 28 -7 60 -9 73 -22 134 -22 619 -1 752 3
14 9 63 15 110 35 269 120 590 227 853 154 378 392 755 664 1051 449 489 1017
839 1645 1017 156 44 406 96 505 104 36 4 70 8 77 10 25 8 236 19 383 19 193
0 438 -17 531 -38 13 -3 42 -8 64 -10 120 -13 438 -95 600 -154 839 -307 1517
-896 1939 -1685 138 -257 299 -706 332 -927 3 -19 7 -42 9 -50 3 -8 7 -33 11
-55 3 -22 7 -42 9 -45 2 -3 7 -35 10 -70 4 -36 8 -67 10 -70 3 -5 7 -47 20
-220 2 -14 3 -67 4 -118 l1 -93 43 3 42 3 -1 65 c-1 85 -13 278 -19 310 -2 14
-6 48 -9 75 -17 171 -69 412 -138 630 -223 715 -667 1346 -1263 1796 -446 337
-918 553 -1450 665 -22 5 -186 33 -225 39 -14 2 -52 7 -85 10 -33 4 -73 9 -90
11 -81 9 -411 23 -418 18z"/>
<path d="M8208 11835 c-2 -2 -57 -6 -123 -9 -66 -4 -127 -8 -135 -11 -8 -2
-40 -6 -71 -10 -31 -3 -66 -7 -77 -10 -11 -2 -37 -6 -58 -9 -37 -6 -59 -10
-114 -22 -14 -3 -36 -7 -50 -10 -62 -12 -264 -68 -355 -99 -517 -172 -993
-466 -1355 -833 -367 -373 -605 -733 -795 -1199 -80 -197 -175 -535 -200 -707
-2 -12 -8 -57 -14 -101 -7 -44 -14 -93 -17 -110 -10 -52 -13 -606 -4 -685 5
-41 12 -100 15 -130 3 -30 8 -64 10 -75 3 -11 7 -36 9 -55 22 -152 85 -403
146 -577 206 -586 544 -1086 1010 -1494 314 -274 675 -490 1065 -636 477 -180
946 -250 1470 -220 119 7 134 8 250 27 33 5 78 12 100 15 38 6 66 10 110 19
478 99 955 306 1346 586 669 479 1150 1181 1354 1976 39 150 39 149 65 304 28
170 29 177 37 285 16 221 5 604 -22 755 -3 14 -8 45 -11 70 -5 37 -24 135 -49
256 -12 55 -56 212 -83 294 -185 569 -523 1093 -964 1495 -104 94 -123 111
-228 192 -418 322 -929 555 -1435 657 -117 24 -123 25 -169 30 -22 3 -72 10
-111 15 -38 5 -108 13 -155 16 -85 7 -387 14 -392 10z m435 -99 c15 -2 60 -7
100 -11 40 -4 79 -8 87 -10 94 -18 200 -38 220 -41 115 -21 406 -110 565 -174
119 -47 376 -178 510 -260 342 -208 686 -519 928 -840 32 -41 62 -80 67 -87
20 -24 138 -209 174 -273 110 -196 224 -449 286 -640 31 -93 86 -296 95 -348
3 -18 12 -63 19 -100 8 -37 17 -91 21 -121 4 -30 8 -62 10 -71 2 -9 6 -50 10
-91 4 -41 8 -94 10 -119 5 -56 6 -424 1 -465 -2 -16 -7 -61 -11 -100 -10 -106
-14 -137 -21 -175 -3 -19 -8 -46 -10 -60 -77 -458 -259 -911 -530 -1320 -372
-561 -898 -994 -1524 -1255 -63 -26 -128 -53 -145 -60 -89 -38 -442 -134 -550
-150 -22 -3 -51 -8 -65 -10 -183 -32 -294 -40 -560 -40 -209 0 -366 8 -425 21
-11 2 -36 6 -55 8 -32 4 -139 21 -198 31 -13 2 -38 9 -55 14 -18 6 -43 12 -57
15 -104 18 -326 89 -500 160 -882 362 -1567 1065 -1905 1956 -84 221 -170 560
-190 750 -4 36 -9 68 -10 71 -8 12 -18 225 -19 384 0 259 8 353 60 660 57 343
256 841 468 1173 305 477 700 855 1181 1132 138 80 360 186 485 233 226 84
556 171 735 192 28 4 61 8 74 10 13 2 65 7 115 11 50 3 92 8 94 9 5 5 484 -4
515 -9z"/>
<path d="M8138 11665 c-1 -1 -41 -6 -88 -9 -47 -4 -110 -11 -140 -16 -30 -5
-73 -11 -95 -14 -182 -23 -545 -124 -758 -212 -534 -219 -981 -555 -1328 -994
-222 -281 -340 -475 -464 -765 -99 -232 -196 -566 -221 -759 -3 -22 -7 -42 -9
-46 -2 -3 -6 -37 -10 -75 -4 -39 -9 -72 -10 -75 -8 -13 -19 -241 -19 -380 0
-134 10 -343 19 -390 1 -8 6 -40 9 -70 20 -155 85 -439 137 -595 73 -214 144
-373 257 -570 89 -154 224 -357 319 -475 96 -120 360 -383 480 -478 338 -266
688 -458 1063 -580 296 -97 553 -150 820 -168 262 -18 578 -1 800 43 19 4 38
6 42 5 11 -3 17 24 8 38 -6 10 -20 11 -67 2 -32 -7 -78 -14 -103 -17 -25 -4
-58 -8 -75 -10 -170 -24 -608 -25 -745 -1 -14 3 -45 7 -70 10 -25 3 -56 8 -70
11 -14 3 -52 10 -85 16 -33 5 -76 14 -95 19 -19 5 -66 17 -105 26 -358 83
-793 284 -1120 517 -96 69 -238 180 -281 222 -351 334 -524 558 -737 955 -104
194 -231 538 -272 738 -2 9 -8 37 -13 62 -6 25 -13 63 -16 85 -4 22 -8 47 -11
55 -5 18 -22 155 -32 260 -9 102 -10 453 -1 571 9 113 42 331 64 427 9 37 17
75 19 84 21 103 117 400 161 496 13 29 24 55 24 58 0 9 136 278 170 334 65
111 199 298 306 430 459 567 1092 949 1849 1118 145 32 228 46 355 57 36 3 88
8 115 11 59 7 451 7 480 1 11 -3 58 -8 105 -12 47 -4 87 -8 90 -10 3 -2 30 -6
60 -10 80 -10 230 -42 350 -76 502 -142 933 -373 1297 -697 616 -547 1004
-1278 1108 -2082 7 -54 16 -186 20 -280 2 -47 4 -93 4 -102 1 -28 41 -23 42 5
5 181 -16 388 -67 662 -40 219 -159 558 -277 790 -232 458 -506 797 -930 1153
-50 41 -268 191 -351 241 -247 149 -544 275 -837 355 -130 35 -361 82 -459 92
-30 3 -71 8 -90 10 -38 6 -516 14 -522 9z"/>
<path d="M8198 11595 c-2 -1 -50 -5 -108 -9 -58 -3 -116 -8 -129 -11 -13 -2
-47 -7 -75 -10 -28 -2 -62 -7 -76 -10 -14 -3 -43 -8 -65 -11 -100 -13 -448
-108 -530 -144 -11 -5 -71 -30 -134 -55 -405 -163 -787 -423 -1096 -745 -119
-124 -204 -223 -268 -311 -81 -113 -111 -157 -166 -244 -59 -94 -180 -328
-228 -440 -93 -217 -192 -562 -218 -755 -1 -8 -5 -37 -9 -65 -23 -167 -30
-266 -30 -440 0 -140 8 -302 19 -384 3 -20 7 -54 9 -76 30 -253 137 -628 248
-875 266 -590 671 -1066 1204 -1418 309 -203 728 -381 1067 -452 23 -4 52 -11
63 -13 12 -3 37 -8 55 -11 19 -3 45 -8 59 -11 14 -3 49 -8 79 -11 30 -3 64 -8
75 -10 90 -18 540 -25 686 -11 652 65 1243 305 1760 715 120 95 382 358 482
482 148 187 302 429 400 630 103 214 185 442 238 665 36 149 63 305 75 430 3
33 8 80 10 105 6 64 7 353 0 430 -4 59 -12 145 -21 227 -1 17 -7 57 -13 90 -6
32 -13 72 -16 88 -12 69 -17 93 -46 204 -67 255 -131 423 -256 671 -155 309
-342 569 -583 810 -198 198 -349 322 -555 454 -374 241 -848 424 -1250 481
-22 3 -51 8 -65 10 -14 2 -50 7 -80 10 -30 3 -77 8 -105 11 -50 5 -402 13
-407 9z m307 -69 c77 -4 151 -8 165 -10 14 -2 52 -7 85 -11 59 -7 75 -10 125
-20 14 -2 41 -7 60 -10 19 -3 96 -21 170 -40 760 -193 1422 -651 1862 -1290
271 -393 461 -876 527 -1340 7 -44 14 -93 16 -110 18 -118 24 -458 12 -615
-10 -116 -16 -164 -43 -330 -14 -86 -70 -297 -114 -430 -242 -727 -728 -1337
-1380 -1730 -490 -296 -1085 -463 -1655 -464 -83 0 -287 11 -340 18 -17 3 -50
7 -75 10 -454 54 -965 246 -1360 509 -72 49 -213 151 -236 172 -6 5 -38 33
-70 60 -561 477 -939 1135 -1073 1870 -11 61 -23 137 -27 170 -3 33 -8 69 -11
80 -10 41 -11 523 -2 605 10 83 33 247 44 303 3 15 7 37 9 50 2 12 18 78 36
147 121 479 370 954 688 1314 63 71 284 289 347 342 385 325 858 560 1365 678
58 13 121 26 140 29 19 3 67 10 105 16 113 18 132 20 305 27 91 3 167 8 169
10 2 2 7 2 10 0 3 -2 69 -7 146 -10z"/>
<path d="M8316 10633 c-4 -12 -19 -24 -34 -28 -26 -6 -26 -7 -8 -20 12 -10 17
-22 14 -39 -4 -22 -3 -24 13 -15 10 5 30 7 44 3 21 -5 24 -3 19 10 -4 10 1 25
11 36 10 11 15 21 12 21 -4 1 -11 3 -17 4 -5 1 -14 3 -18 4 -5 0 -13 11 -19
24 l-10 22 -7 -22z"/>
<path d="M8099 10619 c-1 -8 -1 -18 0 -22 1 -5 -8 -11 -19 -14 -24 -6 -26 -19
-4 -31 8 -5 17 -17 19 -28 2 -10 4 -20 4 -22 1 -2 8 4 17 13 9 9 24 13 35 10
15 -5 18 -1 17 22 -1 15 2 36 6 45 6 13 3 15 -14 11 -12 -3 -28 2 -40 12 -16
14 -20 15 -21 4z"/>
<path d="M8531 10607 c-7 -9 -22 -14 -37 -11 -23 4 -24 3 -14 -16 6 -11 8 -30
5 -40 -5 -16 -2 -20 19 -20 14 0 28 -4 31 -10 10 -17 25 -11 25 9 0 10 10 26
23 34 18 13 19 16 5 16 -10 1 -23 13 -31 27 -12 22 -15 23 -26 11z"/>
<path d="M7890 10559 c0 -12 -7 -31 -17 -41 -15 -17 -15 -18 6 -18 14 0 25 -7
28 -20 6 -24 21 -26 29 -5 4 8 17 15 31 15 22 0 23 1 10 21 -8 11 -12 30 -9
41 4 17 1 19 -16 14 -12 -4 -30 -2 -42 4 -17 9 -20 8 -20 -11z"/>
<path d="M8737 10569 c-9 -6 -27 -7 -39 -3 -18 5 -20 3 -15 -17 4 -15 0 -30
-10 -41 -15 -17 -14 -18 11 -18 15 0 29 -7 32 -15 8 -21 21 -19 29 5 3 11 15
20 26 20 22 0 26 15 5 23 -8 3 -16 17 -18 31 -2 21 -6 23 -21 15z"/>
<path d="M8547 9774 c-5 -5 -63 -16 -94 -18 -18 0 -33 -4 -33 -7 0 -4 -18 -9
-39 -13 -21 -3 -41 -12 -43 -18 -2 -7 -3 -105 -2 -216 1 -121 -2 -198 -8 -190
-10 15 -6 18 -80 -91 l-48 -69 -72 -17 c-60 -13 -208 -46 -278 -60 -8 -2 -80
-17 -160 -35 -80 -17 -156 -34 -170 -37 -14 -2 -86 -18 -160 -34 -74 -17 -146
-33 -160 -35 -27 -5 -78 -16 -95 -20 -5 -2 -26 -6 -45 -9 -19 -3 -48 -10 -65
-15 -16 -5 -43 -11 -60 -14 -26 -4 -132 -27 -190 -40 -17 -5 -267 -58 -521
-112 -67 -14 -71 -17 -66 -40 2 -13 7 -26 11 -28 4 -3 63 8 131 23 69 16 143
32 165 36 22 5 45 9 50 11 14 3 239 52 267 58 13 3 160 35 328 71 168 37 314
68 325 71 11 2 72 15 135 29 237 52 586 127 610 131 14 3 54 12 90 20 36 9 76
18 90 20 23 5 287 62 390 85 25 5 55 12 68 14 12 3 30 7 41 9 69 16 211 46
234 50 15 2 35 7 45 10 9 3 28 7 42 10 63 13 88 18 130 27 25 6 56 13 70 15
14 3 86 19 160 35 74 17 146 32 160 35 14 3 95 20 180 39 85 18 203 44 262 56
59 12 112 25 117 29 6 3 7 17 3 31 l-7 26 -125 -28 c-69 -16 -136 -30 -150
-33 -14 -3 -131 -28 -260 -56 -129 -29 -246 -54 -260 -56 -14 -3 -83 -18 -155
-34 -71 -16 -142 -31 -158 -34 -15 -3 -35 -7 -45 -10 -9 -3 -28 -7 -42 -10
-14 -2 -78 -16 -142 -30 -64 -14 -127 -28 -140 -30 -13 -3 -88 -19 -168 -36
-223 -48 -202 -48 -233 -1 -15 22 -27 42 -27 45 0 2 19 7 43 11 23 4 49 10 57
12 8 2 26 6 40 8 14 1 26 4 28 5 4 4 21 7 42 9 13 1 20 8 20 21 0 24 -25 37
-43 22 -6 -5 -19 -10 -27 -11 -40 -3 -66 -7 -75 -12 -5 -3 -19 -5 -30 -5 -18
1 -20 7 -18 80 1 43 4 80 6 83 3 2 26 6 53 10 27 3 51 9 52 14 2 5 7 7 12 4
14 -9 60 14 60 29 0 20 -19 25 -55 14 -31 -9 -75 -17 -109 -21 -17 -2 -19 5
-20 65 -1 69 2 74 49 82 37 6 110 22 123 26 4 1 10 2 15 1 4 0 7 10 7 22 0 20
-21 33 -33 21z"/>
<path d="M8210 9701 c-22 -6 -47 -41 -55 -75 -1 -6 -4 -18 -7 -26 -3 -8 -14
-37 -24 -65 -10 -27 -19 -54 -20 -60 -1 -5 -16 -48 -33 -95 l-30 -85 -13 33
c-7 17 -16 32 -20 32 -4 0 -5 7 -2 15 4 8 1 15 -6 15 -6 0 -8 5 -5 10 3 6 2
10 -3 10 -5 0 -9 6 -9 13 -1 25 -75 196 -88 201 -7 2 -26 1 -42 -3 l-28 -7 0
-219 c0 -200 1 -218 17 -221 10 -1 20 2 23 7 3 4 6 92 6 194 1 103 2 185 4
183 2 -2 17 -39 35 -83 17 -44 37 -94 45 -112 8 -17 15 -38 15 -47 0 -9 5 -16
10 -16 6 0 10 -9 10 -19 0 -11 5 -23 10 -26 6 -3 10 -14 10 -24 0 -14 6 -17
24 -14 22 5 49 52 60 106 2 6 6 19 9 27 4 8 27 76 52 150 26 74 47 136 49 137
1 2 2 -84 2 -190 l-1 -193 23 4 c13 3 24 13 26 26 9 45 1 419 -9 422 -5 1 -21
-1 -35 -5z"/>
<path d="M7543 9558 c-32 -11 -59 -24 -61 -29 -2 -5 -8 -9 -13 -9 -18 0 -59
-55 -78 -107 -47 -123 -20 -255 62 -298 45 -23 155 -8 195 28 12 11 22 17 22
12 0 -14 61 69 77 105 9 19 16 46 17 60 1 14 6 32 11 39 5 9 4 12 -1 8 -6 -3
-9 12 -9 36 1 23 -1 47 -4 52 -3 6 -6 15 -7 21 -3 21 -37 65 -58 76 -44 24
-94 26 -153 6z m123 -52 c6 -9 13 -13 16 -11 3 3 11 -15 18 -40 39 -141 -13
-270 -122 -300 -5 -2 -11 -4 -15 -5 -5 -1 -12 -1 -18 0 -5 1 -22 3 -37 5 -26
4 -83 45 -62 45 5 0 3 4 -5 9 -18 12 -23 123 -9 180 15 59 66 111 124 126 58
14 95 11 110 -9z"/>
<path d="M7173 9470 c-73 -37 -126 -101 -140 -169 -8 -36 -10 -144 -4 -156 3
-5 6 -12 7 -15 8 -40 51 -90 79 -90 7 0 16 -4 19 -8 13 -21 162 13 198 45 13
12 14 18 5 28 -9 10 -20 9 -55 -6 -72 -31 -172 -22 -172 15 0 8 -5 16 -11 18
-7 2 -13 22 -15 43 -1 22 -4 41 -4 43 -6 8 -3 49 4 60 4 6 5 12 1 12 -10 0 26
75 48 98 26 28 72 54 81 45 3 -4 6 -1 6 6 0 7 6 11 13 8 6 -2 24 0 39 4 16 4
30 3 33 -2 10 -16 21 -10 33 16 7 14 12 28 12 29 0 2 -28 4 -62 3 -47 -1 -77
-8 -115 -27z"/>
<path d="M6945 9425 c-5 -2 -53 -13 -105 -25 l-95 -20 0 -220 c0 -189 2 -220
15 -220 8 1 62 11 120 24 92 20 105 25 108 44 4 26 -4 27 -75 8 -29 -8 -53
-12 -53 -10 0 2 -11 0 -23 -5 -14 -6 -30 -6 -38 0 -11 7 -11 9 -1 9 8 0 10 5
5 13 -10 17 -11 117 0 117 4 0 5 5 2 10 -3 6 0 10 7 11 7 0 22 3 33 5 11 3 29
7 40 9 92 18 104 23 98 44 -3 12 -13 18 -29 17 -13 0 -24 -3 -24 -6 0 -3 -8
-6 -17 -6 -16 -1 -59 -8 -88 -14 -5 -1 -16 -2 -24 -1 -11 1 -11 4 -1 16 7 8 8
15 4 15 -5 0 -9 23 -8 52 0 56 6 61 89 72 17 3 30 5 30 6 0 2 37 10 58 12 10
2 17 11 17 25 0 22 -16 28 -45 18z"/>
<path d="M6539 9336 c-4 -5 -33 -11 -99 -22 -19 -3 -38 -8 -41 -10 -4 -2 -7
-103 -7 -224 l0 -221 32 6 c17 3 49 9 70 14 22 6 42 9 45 9 11 -3 86 33 104
50 27 24 46 65 47 99 0 45 -3 63 -12 63 -4 0 -8 6 -8 13 0 13 -11 17 -60 18
-16 0 -19 3 -10 6 18 7 56 46 69 72 16 29 5 94 -19 113 -20 16 -99 26 -111 14z
m77 -59 c14 -14 11 -56 -6 -84 -18 -31 -62 -50 -126 -58 -11 -1 -26 -5 -32 -8
-7 -5 -10 18 -9 68 0 41 1 75 1 75 1 1 19 3 41 6 22 4 42 8 45 11 6 6 79 -3
86 -10z m-15 -181 c28 17 45 -58 24 -108 -8 -20 -76 -54 -120 -61 -16 -3 -37
-6 -45 -8 -12 -3 -15 11 -17 79 -3 80 0 88 31 83 4 -1 13 2 20 7 6 4 27 9 46
11 19 2 37 5 40 8 2 2 6 -1 8 -6 2 -6 8 -9 13 -5z"/>
<path d="M10755 9312 c-3 -3 -22 -6 -43 -8 -20 -1 -57 -6 -82 -12 -25 -6 -57
-13 -73 -16 -15 -2 -35 -7 -45 -10 -9 -3 -30 -7 -46 -10 -16 -3 -34 -10 -39
-15 -10 -10 -17 -880 -7 -882 3 0 13 -2 22 -4 10 -2 21 1 24 6 3 6 14 7 25 4
10 -4 20 -3 20 2 1 4 3 18 4 29 1 12 5 26 9 32 3 6 2 13 -3 17 -6 3 -7 15 -3
28 8 20 8 40 2 52 -6 13 -6 32 2 48 5 10 5 24 0 33 -5 8 -6 35 -2 60 4 24 3
44 -1 44 -10 0 1 39 14 47 6 3 7 1 3 -5 -4 -7 -3 -12 3 -12 5 0 13 5 16 11 4
6 13 8 20 5 7 -2 16 -2 19 2 4 3 12 7 19 8 7 1 30 5 52 9 l40 6 54 -85 c30
-47 59 -86 63 -86 5 0 7 -4 3 -9 -3 -5 2 -16 10 -24 8 -9 15 -20 15 -26 0 -6
5 -11 12 -11 6 0 9 -3 5 -6 -3 -4 -1 -12 6 -19 7 -7 19 -22 27 -34 11 -16 22
-20 40 -16 14 3 36 7 49 10 39 7 43 19 16 51 -14 16 -28 37 -31 47 -3 9 -10
17 -15 17 -5 0 -9 6 -9 13 0 8 -9 22 -20 32 -11 10 -22 27 -26 38 -4 11 -17
32 -30 46 -13 14 -24 31 -24 38 0 7 -4 13 -10 13 -5 0 -10 5 -10 11 0 6 -7 17
-15 25 -18 18 -11 38 19 52 13 6 41 31 62 56 104 125 98 315 -12 374 -24 13
-122 31 -129 24z m40 -108 c49 -20 64 -45 69 -118 6 -83 -43 -159 -127 -196
-42 -19 -224 -64 -213 -53 3 4 1 12 -5 19 -7 9 -7 19 1 33 7 14 8 27 2 38 -5
9 -6 28 -2 43 4 15 4 33 0 40 -4 7 -4 26 0 41 5 17 5 31 -1 35 -5 3 -6 10 -3
16 4 6 7 24 6 39 -1 33 1 35 48 43 19 4 61 12 93 19 64 13 102 14 132 1z"/>
<path d="M10329 9226 c-2 -2 -21 -7 -41 -10 -31 -5 -154 -31 -243 -52 -11 -3
-31 -7 -45 -10 -14 -3 -32 -6 -40 -8 -8 -2 -32 -7 -53 -11 -38 -7 -66 -42 -46
-56 5 -3 5 -19 0 -37 -5 -18 -7 -32 -3 -32 4 0 7 -16 8 -35 0 -18 -3 -32 -8
-29 -4 3 -4 -5 1 -18 4 -13 5 -35 0 -50 -4 -16 -5 -28 -1 -28 4 0 7 -33 7 -74
0 -41 -3 -72 -7 -70 -4 3 -4 -5 1 -18 4 -13 5 -35 0 -50 -4 -16 -5 -28 -1 -28
4 0 7 -33 7 -74 0 -41 -3 -72 -7 -70 -4 3 -4 -5 1 -18 4 -13 5 -35 0 -50 -5
-18 -4 -28 3 -28 6 0 6 -6 -2 -15 -7 -8 -9 -15 -4 -15 5 0 9 -20 9 -45 0 -25
-4 -45 -8 -45 -4 0 -2 -6 5 -14 8 -9 17 -11 24 -5 6 5 14 6 17 2 4 -3 7 -1 7
6 0 7 4 10 8 7 5 -3 24 -1 43 4 19 5 49 12 66 15 18 3 63 12 100 21 38 9 79
18 93 20 14 3 40 9 59 14 19 5 37 8 39 5 13 -13 33 29 30 64 -2 36 -4 40 -23
35 -12 -3 -30 -7 -41 -9 -10 -2 -19 -4 -19 -5 0 -1 -11 -3 -25 -5 -14 -2 -35
-6 -47 -9 -40 -10 -67 -16 -102 -22 -19 -3 -45 -10 -58 -15 -13 -5 -23 -6 -23
-3 0 4 -6 2 -13 -4 -19 -16 -33 -1 -32 36 1 17 -3 32 -8 32 -6 0 -6 5 0 13 5
6 9 63 8 125 l-1 113 26 5 c14 3 34 8 45 12 25 7 41 10 81 15 17 2 36 7 42 11
7 4 12 5 12 2 0 -3 12 -1 26 5 15 5 43 12 63 15 56 9 66 18 66 63 0 23 -4 41
-9 41 -8 0 -191 -39 -283 -60 -73 -17 -70 -25 -67 128 1 75 2 139 3 142 1 5
25 10 64 13 9 1 17 4 17 7 0 4 6 7 13 7 6 0 39 6 72 13 33 7 69 14 80 16 11 1
20 3 20 4 0 1 11 3 25 6 14 2 40 9 58 15 31 10 33 13 31 55 -3 40 -8 51 -20
40z"/>
<path d="M9395 9021 c-11 -5 -23 -7 -27 -5 -4 3 -9 0 -13 -6 -7 -12 -7 -891 1
-899 3 -3 8 -1 12 4 8 11 19 14 57 17 14 1 25 5 25 8 0 3 10 6 23 6 31 3 89
14 107 21 8 3 23 7 33 8 9 2 19 4 22 5 3 1 10 4 15 5 6 1 11 3 13 4 2 2 74 12
100 14 9 1 17 5 17 10 0 4 4 5 10 2 14 -8 52 14 44 26 -3 5 -2 15 4 22 8 12
-10 62 -19 52 -3 -2 -18 -6 -34 -9 -54 -10 -76 -15 -97 -22 -11 -3 -30 -7 -41
-9 -12 -2 -33 -6 -47 -9 -55 -12 -80 -18 -85 -17 -2 0 -18 -4 -34 -9 l-30 -8
0 326 c0 180 -1 360 -1 400 0 77 -5 83 -55 63z"/>
<path d="M9195 8978 c-38 -9 -81 -19 -95 -22 -43 -8 -80 -16 -149 -32 -72 -16
-100 -22 -133 -28 -13 -3 -34 -8 -48 -11 -14 -3 -32 -8 -40 -10 -8 -2 -20 -4
-27 -4 -15 -1 -30 -28 -37 -64 -2 -15 -7 -31 -11 -37 -4 -6 -9 -22 -11 -37 -3
-15 -11 -34 -17 -42 -7 -8 -10 -15 -8 -15 1 -1 -4 -26 -13 -56 -9 -30 -16 -58
-16 -62 -1 -4 -7 -20 -15 -35 -8 -14 -12 -30 -9 -35 3 -4 0 -8 -7 -8 -7 0 -10
-3 -6 -6 3 -4 0 -22 -8 -40 -8 -19 -14 -38 -15 -42 0 -8 -59 -200 -67 -222 -9
-23 -19 -71 -22 -102 -2 -21 -20 -4 -26 25 -4 17 -21 70 -37 117 -17 47 -31
91 -31 98 0 6 -4 12 -9 12 -4 0 -8 6 -8 13 0 6 -18 59 -41 117 -22 58 -42 112
-44 120 -2 8 -4 16 -5 18 -2 1 -3 5 -5 10 -1 4 -7 21 -14 37 -7 17 -14 35 -15
40 -2 6 -8 23 -14 38 -7 16 -12 32 -12 37 0 7 -69 -8 -98 -22 -10 -4 -5 -34
12 -72 12 -27 25 -60 31 -76 1 -3 5 -14 9 -25 27 -73 39 -102 47 -117 5 -10 9
-27 9 -38 0 -11 5 -20 11 -20 5 0 8 -4 4 -9 -3 -5 -1 -12 5 -16 6 -4 8 -10 5
-15 -3 -5 -1 -11 5 -15 6 -4 8 -11 5 -16 -4 -5 -2 -9 3 -9 5 0 9 -6 9 -12 1
-7 11 -38 23 -68 12 -30 33 -86 47 -125 14 -38 30 -75 34 -81 5 -6 10 -23 11
-38 1 -14 6 -26 9 -26 4 0 9 -10 11 -22 2 -14 9 -22 18 -20 34 8 66 14 77 15
7 0 20 23 29 51 8 28 18 58 20 66 3 8 5 16 4 18 0 1 7 16 15 32 9 17 13 30 11
30 -3 0 2 19 10 43 9 23 17 49 19 57 5 17 64 197 73 220 3 8 6 18 7 23 2 4 4
9 5 12 1 3 3 8 4 13 7 26 80 249 84 257 4 6 8 17 9 26 4 28 22 69 30 69 5 0 7
-30 5 -67 -1 -38 -2 -81 -2 -98 5 -352 3 -616 -5 -619 -6 -3 -6 -5 1 -5 5 -1
9 -14 8 -31 -2 -29 5 -37 20 -23 3 4 12 8 19 9 10 1 105 21 142 30 29 6 73 16
100 21 46 8 60 11 60 13 0 1 7 3 15 5 120 24 131 27 128 43 -1 9 1 23 5 30 5
7 3 12 -3 12 -7 0 -10 6 -7 14 6 15 -16 29 -27 18 -7 -6 -19 -9 -78 -19 -21
-3 -38 -8 -38 -12 0 -3 -10 -6 -22 -7 -13 0 -36 -4 -53 -8 -133 -29 -154 -32
-158 -22 -7 20 -2 304 6 312 4 4 17 8 30 10 12 1 22 3 22 4 0 2 16 5 60 14 17
3 41 8 55 11 14 3 36 8 50 11 14 2 32 7 40 10 8 3 30 7 49 10 19 2 37 7 39 9
5 5 12 95 7 95 -1 0 -53 -11 -116 -25 -63 -14 -123 -27 -134 -29 -11 -3 -39
-9 -62 -14 -24 -5 -44 -7 -44 -3 -1 3 -2 68 -3 144 -1 104 2 137 11 138 7 1
16 2 21 4 4 1 25 5 47 10 56 13 54 12 60 15 3 1 13 3 23 5 9 1 35 5 57 10 22
5 43 8 48 7 4 -1 7 2 7 6 0 4 12 7 28 7 15 -1 32 3 39 8 7 5 16 6 22 3 12 -8
26 31 22 59 -6 39 -13 41 -86 23z"/>
<path d="M7780 8673 c-21 -8 -25 -15 -56 -112 -16 -47 -31 -88 -34 -91 -3 -3
-7 -12 -9 -20 -7 -32 -8 -35 -14 -50 -10 -24 -68 -184 -72 -200 -5 -19 -112
-319 -121 -340 -4 -8 -8 -21 -10 -28 -5 -26 -10 -21 -59 53 -27 41 -53 75 -57
75 -5 0 -7 4 -4 8 3 5 -2 18 -12 28 -9 10 -25 32 -35 47 -18 28 -18 29 2 34
12 3 21 9 21 14 0 5 4 9 10 9 11 0 47 36 76 76 55 77 66 220 22 288 -33 52
-92 78 -177 78 -38 0 -74 -3 -80 -7 -6 -3 -24 -8 -39 -10 -44 -6 -95 -16 -101
-20 -4 -2 -26 -6 -51 -10 -67 -10 -82 -21 -76 -57 2 -16 2 -27 -2 -23 -7 7 -8
11 -12 48 -1 12 -4 16 -7 9 -2 -6 -9 -10 -14 -6 -5 3 -24 1 -42 -5 -17 -5 -48
-12 -67 -15 -19 -3 -50 -10 -68 -15 -18 -5 -35 -10 -37 -10 -11 0 -121 -23
-135 -28 -8 -3 -24 -7 -35 -9 -29 -4 -64 -11 -120 -24 -27 -7 -63 -14 -80 -17
-37 -6 -45 -17 -45 -67 0 -35 2 -38 23 -32 12 4 36 9 52 12 39 6 70 12 70 14
0 2 21 6 67 14 21 3 43 7 50 8 10 2 13 -75 15 -382 1 -212 2 -391 2 -398 1
-10 10 -12 34 -6 17 4 38 7 44 7 13 0 29 35 20 44 -3 3 -2 16 3 29 5 13 6 24
2 24 -4 0 -6 39 -4 87 3 104 3 87 1 200 0 50 1 95 4 100 2 4 1 17 -3 28 -4 11
-4 30 1 43 5 12 5 22 1 22 -4 0 -6 39 -4 87 4 136 6 146 22 149 8 2 26 6 40 9
30 7 80 16 98 17 6 1 12 4 12 7 0 3 12 7 28 8 49 5 63 9 71 22 15 24 17 -20
16 -414 -1 -371 0 -391 17 -391 10 0 18 3 18 7 0 4 11 6 24 5 15 -2 28 3 32
13 4 9 8 94 9 188 1 95 4 176 8 179 3 4 17 8 29 9 38 5 53 10 60 20 5 6 8 4 8
-4 0 -11 5 -10 20 4 12 11 20 13 20 6 0 -8 5 -9 18 -2 15 8 22 3 42 -30 14
-21 28 -39 33 -39 4 0 5 -4 2 -10 -3 -5 -2 -10 4 -10 6 0 13 -11 17 -25 3 -14
10 -25 14 -25 4 0 15 -16 24 -35 9 -19 21 -35 26 -35 6 0 10 -9 10 -19 0 -10
7 -22 16 -25 8 -3 12 -10 9 -16 -3 -6 1 -13 9 -16 9 -3 16 -12 16 -20 0 -13
24 -15 45 -3 6 4 18 5 28 4 9 -2 17 1 17 6 0 4 6 6 13 3 20 -7 31 12 57 91 12
39 25 75 29 80 3 6 6 12 6 15 0 3 9 31 19 62 21 60 35 71 101 82 17 3 41 7 55
11 14 3 36 7 50 10 14 3 35 7 48 10 12 3 32 7 45 10 12 2 34 7 48 10 21 5 28
1 39 -22 7 -15 14 -30 14 -33 2 -12 29 -77 41 -100 7 -14 13 -27 14 -30 0 -3
5 -19 11 -37 10 -28 22 -33 50 -23 3 1 13 2 22 1 10 -1 24 4 31 11 15 13 16 7
-39 133 -9 22 -18 42 -19 45 -13 37 -58 147 -86 207 -10 24 -19 45 -19 48 0 3
-9 27 -21 53 -11 26 -26 61 -33 77 -7 17 -21 47 -30 68 -9 21 -16 44 -16 52 0
8 -4 15 -10 15 -5 0 -10 6 -10 14 0 7 -9 34 -20 60 -18 39 -25 46 -48 45 -15
0 -34 -3 -42 -6z m41 -165 c7 -24 13 -47 14 -53 0 -5 2 -12 5 -15 3 -3 18 -36
34 -75 15 -38 34 -86 43 -105 31 -71 27 -75 -82 -96 -22 -4 -42 -8 -45 -9 -8
-2 -83 -17 -107 -21 l-21 -4 25 67 c52 143 112 336 107 344 -3 5 -1 9 4 9 5 0
15 -19 23 -42z m-521 -80 c73 -32 67 -193 -12 -264 -28 -27 -108 -67 -116 -60
-3 3 -11 1 -19 -5 -7 -6 -13 -9 -13 -6 0 3 -20 -1 -45 -9 -25 -7 -45 -11 -45
-8 0 3 -10 0 -21 -7 -15 -8 -19 -8 -15 0 4 6 4 11 -1 11 -4 0 -8 72 -8 160 l0
160 30 10 c36 11 76 20 130 27 22 3 41 7 43 8 7 6 65 -4 92 -17z"/>
<path d="M10350 7925 c-231 -51 -567 -124 -592 -129 -13 -2 -66 -14 -118 -26
-52 -12 -106 -23 -118 -26 -13 -3 -117 -25 -230 -50 -114 -25 -259 -56 -322
-69 -63 -13 -198 -43 -300 -65 -102 -22 -194 -42 -205 -44 -82 -17 -231 -49
-345 -75 -74 -16 -146 -32 -160 -34 -14 -3 -162 -35 -330 -71 -168 -37 -420
-91 -560 -122 -140 -30 -284 -61 -320 -70 -36 -8 -74 -16 -85 -18 -91 -18
-258 -56 -262 -59 -2 -3 -1 -17 3 -31 4 -18 11 -25 23 -22 9 3 70 17 136 31
66 14 138 30 161 35 50 12 320 70 354 76 14 3 45 10 70 15 25 6 56 13 70 15
14 3 53 11 86 19 34 8 73 16 85 19 13 3 33 7 44 9 11 3 54 12 95 21 41 8 104
22 140 30 92 20 351 76 375 80 11 3 49 11 85 20 98 24 100 23 145 -44 22 -33
43 -60 46 -60 3 0 14 16 25 35 10 19 21 35 24 35 3 0 19 23 35 50 26 42 36 50
75 59 163 37 416 92 440 96 17 3 58 12 92 20 35 8 74 16 88 19 14 2 45 9 70
15 25 5 56 12 70 15 14 3 34 7 45 10 11 2 52 11 90 19 948 204 1093 236 1118
243 17 5 25 49 10 57 -5 2 -73 -11 -153 -28z"/>
<path d="M11045 7823 c-14 -29 -37 -79 -52 -110 -15 -32 -26 -62 -25 -66 2 -5
-3 -7 -9 -5 -13 4 -89 123 -89 139 0 5 -4 9 -10 9 -5 0 -9 5 -7 11 4 19 -40
30 -54 13 -8 -10 -9 -18 -3 -22 6 -4 16 -22 23 -39 8 -18 17 -33 22 -33 5 0 9
-7 9 -15 0 -8 5 -15 11 -15 5 0 8 -4 4 -9 -3 -5 1 -16 9 -23 39 -39 57 -98 55
-179 -1 -44 1 -82 5 -86 3 -3 6 -1 6 5 0 7 9 12 20 12 11 0 20 3 21 8 4 44 3
82 -3 82 -4 0 -4 10 0 23 4 12 7 36 7 52 0 17 6 36 13 43 7 8 10 17 7 22 -3 5
-2 10 2 12 5 1 23 35 42 73 38 77 38 76 46 121 10 52 -23 38 -50 -23z"/>
<path d="M10614 7776 c-11 -12 -67 -170 -64 -182 1 -4 -2 -10 -7 -13 -6 -5
-56 -136 -67 -176 -9 -37 -30 -92 -40 -104 -9 -11 -6 -13 14 -6 14 4 30 12 36
19 12 11 50 116 46 128 -2 9 56 29 103 35 81 11 90 9 93 -14 2 -13 8 -23 13
-23 5 0 9 -9 9 -19 0 -11 5 -23 10 -26 6 -4 8 -11 4 -16 -3 -5 8 -8 25 -7 27
2 30 5 24 27 -3 14 -12 36 -19 50 -7 13 -11 28 -8 33 3 4 0 8 -5 8 -6 0 -11 4
-11 9 0 5 -8 26 -17 47 -9 22 -17 41 -18 44 -2 7 -16 39 -41 98 -13 28 -21 52
-18 52 3 0 -2 10 -10 22 -18 25 -37 30 -52 14z m32 -98 c1 -5 2 -10 3 -13 0
-3 1 -8 0 -11 0 -4 3 -10 8 -13 14 -10 43 -101 33 -102 -14 -2 -29 -6 -32 -9
-2 -1 -12 -3 -22 -5 -11 -2 -30 -6 -43 -10 -16 -4 -23 -1 -23 8 0 13 31 111
47 147 3 8 5 24 4 35 l-2 20 13 -20 c7 -11 13 -23 14 -27z"/>
<path d="M10226 7693 c-2 -2 -14 -6 -27 -8 -13 -3 -35 -7 -49 -11 -14 -3 -32
-6 -40 -8 -13 -2 -15 -36 -16 -224 l0 -221 35 5 c45 8 65 12 69 14 3 3 11 5
55 14 20 5 37 12 37 17 0 5 6 9 13 9 20 0 84 62 107 103 11 21 22 53 23 70 2
18 5 37 8 42 5 9 4 31 0 38 -2 1 -5 20 -7 42 -3 22 -10 43 -17 47 -7 4 -8 8
-2 8 16 0 -42 49 -70 60 -25 9 -110 11 -119 3z m124 -70 c70 -76 36 -247 -60
-302 -34 -19 -139 -51 -143 -43 -7 12 -2 340 4 347 4 3 19 8 35 11 16 3 31 8
34 11 3 3 29 3 58 1 36 -3 58 -11 72 -25z"/>
<path d="M9801 7604 c-24 -9 -50 -21 -57 -27 -6 -7 -20 -20 -30 -29 -52 -46
-73 -104 -76 -203 -2 -50 12 -125 23 -125 4 0 11 -9 14 -20 3 -11 12 -20 20
-20 7 0 15 -5 17 -10 3 -10 45 -21 78 -22 39 0 120 29 150 54 54 45 99 148 95
218 -1 19 -3 49 -4 65 -2 43 -49 112 -85 125 -40 14 -93 12 -145 -6z m104 -38
c44 -8 70 -47 68 -103 -1 -7 2 -13 6 -13 4 0 6 -18 4 -39 -5 -96 -43 -166
-106 -195 -42 -20 -119 -24 -125 -8 -2 7 -7 10 -12 7 -4 -3 -18 15 -30 40 -35
71 -20 197 29 258 18 22 110 66 126 61 5 -2 23 -6 40 -8z"/>
<path d="M9572 7549 c-11 -4 -37 -10 -58 -14 -45 -8 -69 -13 -69 -15 0 -1 -17
-4 -39 -6 -54 -7 -109 -31 -103 -46 5 -15 100 -13 105 1 2 5 11 7 20 4 16 -4
17 -22 17 -199 -1 -169 1 -194 15 -194 33 0 36 15 35 207 l0 193 25 9 c14 6
42 13 63 17 36 6 50 16 53 41 2 13 -31 14 -64 2z"/>
<path d="M7914 6123 c-4 -14 -14 -23 -25 -23 -11 0 -19 -7 -19 -15 0 -8 5 -15
10 -15 6 0 10 -11 10 -25 0 -27 6 -30 29 -16 9 6 22 6 34 -1 18 -9 19 -7 15
16 -3 15 0 31 8 37 17 14 9 30 -10 23 -8 -3 -21 5 -30 18 l-16 23 -6 -22z"/>
<path d="M8719 6123 c-8 -11 -22 -19 -31 -17 -19 2 -25 -21 -8 -31 6 -3 7 -18
4 -32 -6 -24 -5 -24 16 -13 16 9 25 9 33 1 17 -17 27 -13 27 13 0 13 8 27 18
31 15 6 14 8 -7 20 -14 7 -28 21 -31 31 -6 16 -7 16 -21 -3z"/>
<path d="M8534 6086 c-3 -9 -14 -13 -30 -10 -22 4 -24 2 -18 -21 4 -15 1 -32
-6 -40 -11 -13 -8 -15 15 -15 15 0 34 -8 41 -17 9 -12 14 -14 15 -5 1 6 2 17
3 23 0 6 12 17 26 25 l25 14 -22 6 c-13 4 -23 14 -23 25 0 23 -18 35 -26 15z"/>
<path d="M8091 6067 c-5 -13 -18 -27 -27 -31 -16 -6 -16 -8 6 -19 13 -7 27
-22 30 -35 5 -22 5 -22 22 -3 11 13 24 18 38 14 19 -5 20 -3 9 19 -8 18 -8 31
0 45 9 18 7 20 -14 15 -14 -2 -32 1 -40 8 -12 10 -16 8 -24 -13z"/>
<path d="M8288 6047 c2 -10 -4 -27 -13 -37 -17 -19 -17 -20 3 -20 11 0 27 -9
36 -21 l14 -21 11 20 c6 11 21 22 33 24 20 3 21 4 5 19 -9 9 -15 25 -13 35 3
16 -3 19 -38 19 -36 0 -42 -3 -38 -18z"/>
<path d="M11555 12315 c-22 -8 -35 -14 -30 -14 6 -1 26 -16 47 -34 20 -17 47
-41 61 -52 44 -35 210 -187 279 -256 l67 -67 7 37 c3 20 7 40 8 45 3 12 -193
201 -304 294 -14 11 -36 30 -49 41 -27 24 -31 24 -86 6z"/>
<path d="M11528 12247 c-7 -7 -30 -34 -52 -60 -32 -38 -42 -45 -57 -36 -23 12
-29 6 -154 -151 l-96 -121 -37 29 c-67 52 -76 55 -104 24 -14 -15 -62 -76
-106 -136 l-81 -108 22 -18 c21 -18 23 -18 43 1 28 26 100 47 144 42 44 -6 77
-23 118 -64 62 -61 78 -138 43 -215 -26 -57 -12 -67 46 -37 52 26 79 28 138
12 57 -16 131 -94 142 -151 11 -51 0 -113 -26 -149 -24 -33 -12 -61 17 -42 17
10 23 8 44 -15 24 -27 98 -117 109 -134 3 -5 26 3 50 17 24 13 56 25 71 25
102 0 131 -111 48 -187 l-38 -35 75 -115 c65 -99 187 -309 196 -337 2 -5 21
-3 48 6 75 25 145 2 160 -55 10 -39 -23 -99 -71 -126 l-39 -22 20 -51 c11 -29
23 -56 25 -60 7 -10 29 -4 99 27 28 12 85 37 128 55 53 22 87 44 103 65 24 32
34 90 20 114 -5 7 12 20 51 37 169 75 239 113 255 141 37 63 33 86 -33 216
-142 281 -322 566 -514 812 -80 102 -94 115 -139 120 -47 6 -89 -12 -151 -65
-90 -77 -149 -127 -205 -175 l-55 -46 -24 28 c-23 27 -85 96 -144 159 l-29 32
117 113 c64 63 121 116 126 117 12 5 11 39 -2 47 -6 4 13 31 45 65 31 32 56
62 56 67 0 8 -123 127 -253 246 -38 35 -107 90 -122 100 -8 4 -19 1 -27 -6z"/>
<path d="M4278 11622 c-80 -3 -79 2 -49 -143 43 -206 50 -227 95 -263 67 -54
605 -436 613 -436 4 1 36 38 70 83 34 45 89 115 124 156 l62 74 -44 41 c-24
23 -80 73 -124 111 -73 64 -107 95 -205 181 -153 136 -223 194 -233 196 -22 3
-241 3 -309 0z"/>
<path d="M11753 10899 c-76 -37 -77 -121 -1 -127 76 -6 132 86 78 130 -28 22
-26 22 -77 -3z"/>
<path d="M12109 10231 c-41 -41 -38 -75 8 -99 35 -19 97 8 120 51 36 71 -66
109 -128 48z"/>
<path d="M12885 10170 c-49 -21 -97 -41 -105 -43 -8 -3 -142 -57 -296 -119
l-282 -113 38 -98 c21 -54 38 -100 39 -102 7 -39 38 -125 46 -125 5 0 188 55
406 122 l396 123 -9 27 c-9 24 -5 33 29 75 62 77 81 94 128 110 25 8 45 16 45
18 0 2 -9 28 -21 58 l-21 54 -46 -17 c-39 -15 -56 -16 -102 -7 -116 21 -129
26 -136 52 -3 14 -9 25 -13 24 -3 -1 -46 -18 -96 -39z"/>
<path d="M12850 9701 c-212 -65 -418 -127 -458 -139 -62 -20 -71 -25 -63 -40
5 -9 26 -86 47 -170 30 -125 40 -151 53 -147 9 2 54 12 101 20 47 9 110 22
140 30 30 8 69 16 85 19 17 3 158 33 314 66 156 33 288 60 292 60 4 0 3 14 -2
32 -8 29 -5 36 29 72 61 66 96 96 112 96 35 1 40 14 25 69 -7 29 -15 55 -18
57 -2 2 -17 0 -34 -5 -23 -7 -49 -3 -109 16 -90 29 -104 38 -104 64 0 11 -6
19 -12 18 -7 -1 -186 -54 -398 -118z"/>
<path d="M3436 9754 c-6 -24 -10 -25 -41 -20 -19 4 -35 5 -35 3 0 -2 -13 -55
-30 -118 -38 -148 -66 -279 -99 -476 l-17 -102 31 -3 c25 -3 30 -7 30 -31 1
-42 21 -48 65 -19 34 22 39 31 45 76 11 85 14 104 56 304 22 106 44 202 48
215 5 12 15 43 21 69 11 43 10 49 -11 80 -39 55 -54 60 -63 22z"/>
<path d="M3526 9628 c-9 -35 -19 -74 -22 -88 -3 -14 -11 -50 -19 -80 -8 -30
-17 -70 -20 -89 -3 -19 -7 -37 -9 -40 -2 -3 -7 -28 -10 -55 -4 -27 -9 -53 -11
-57 -3 -4 -7 -24 -10 -45 -9 -61 -17 -117 -21 -141 -5 -24 4 -28 81 -38 57 -7
94 -12 179 -25 33 -5 61 -8 62 -7 2 2 11 52 20 119 l6 36 -54 16 c-88 25 -138
85 -138 164 0 97 111 168 225 142 l32 -7 22 80 c12 44 18 84 14 88 -7 6 -290
89 -305 89 -3 0 -13 -28 -22 -62z"/>
<path d="M3861 9516 c-12 -43 -18 -82 -14 -86 7 -7 347 -91 407 -102 15 -2 22
9 37 62 10 36 18 70 19 76 0 6 -28 18 -62 26 -35 9 -131 36 -214 60 l-150 43
-23 -79z"/>
<path d="M3705 9410 c-65 -14 -100 -48 -108 -105 -9 -63 54 -136 132 -151 24
-5 31 -3 33 10 0 9 1 21 2 28 1 6 -7 12 -17 14 -54 8 -94 64 -77 108 10 28 69
51 106 42 13 -4 24 -3 25 1 0 5 2 18 5 31 3 16 -1 22 -14 23 -9 1 -26 2 -37 3
-11 2 -33 0 -50 -4z"/>
<path d="M3829 9393 c0 -5 -2 -17 -4 -28 -4 -18 12 -24 188 -63 240 -53 247
-54 247 -43 0 5 3 16 6 24 4 11 -4 17 -28 22 -18 4 -115 27 -214 51 -199 48
-194 47 -195 37z"/>
<path d="M13345 9370 c-22 -4 -141 -28 -265 -54 -124 -27 -236 -50 -250 -52
-14 -3 -53 -11 -88 -19 -34 -8 -74 -17 -90 -20 -43 -8 -75 -14 -107 -22 -16
-3 -37 -7 -45 -8 -27 -3 -80 -16 -80 -20 0 -2 6 -34 14 -72 8 -37 17 -93 21
-123 4 -30 8 -57 10 -60 2 -3 6 -37 9 -75 3 -39 8 -90 11 -115 6 -61 18 -298
16 -332 -2 -35 13 -36 35 -3 19 30 42 31 113 8 166 -53 108 -205 -81 -212 -34
-1 -63 -3 -64 -4 -1 -1 -5 -30 -7 -64 -3 -35 -8 -67 -11 -72 -3 -5 -1 -22 5
-38 24 -69 157 -98 218 -47 22 18 35 23 46 16 13 -7 10 -13 -22 -33 -21 -14
-56 -30 -79 -37 -47 -14 -71 -36 -76 -72 -1 -14 -7 -25 -13 -26 -66 -3 -115
-44 -115 -96 0 -57 87 -113 157 -102 73 11 103 40 103 95 0 32 4 41 23 48 28
11 37 6 32 -19 -3 -15 2 -20 16 -20 17 0 19 5 15 38 -3 20 -5 40 -5 45 -2 14
-21 7 -21 -8 0 -20 -6 -19 -68 14 l-54 27 58 40 c33 21 67 49 77 62 22 27 28
27 57 4 22 -18 22 -19 5 -46 -18 -27 -18 -28 0 -25 10 2 22 16 26 31 8 31 -11
49 -86 81 -36 16 -40 22 -40 52 0 19 2 35 5 36 12 2 106 7 230 13 130 6 271
13 375 21 28 2 69 4 91 4 35 1 53 11 118 62 43 33 80 58 83 55 4 -3 4 -8 2
-10 -24 -21 -308 -231 -351 -260 -63 -43 -63 -38 -3 -102 l31 -31 29 24 c159
129 195 161 347 306 15 15 17 21 7 33 -13 16 1 20 17 4 7 -7 26 0 57 20 26 16
51 30 55 30 5 0 21 -14 37 -30 21 -22 26 -33 18 -41 -8 -8 -6 -16 6 -28 16
-17 66 -76 135 -160 20 -24 71 -90 112 -147 42 -57 79 -104 82 -104 4 1 30 21
57 46 43 38 48 46 35 57 -8 7 -54 55 -101 107 -48 52 -128 137 -179 188 -76
76 -95 90 -107 81 -11 -10 -20 -7 -44 18 l-31 30 33 21 33 21 -32 18 c-17 10
-32 21 -32 24 0 3 14 18 30 34 25 24 34 27 49 18 16 -10 37 8 169 140 168 170
232 236 232 241 0 6 -36 42 -69 69 l-33 27 -66 -87 c-62 -83 -124 -160 -184
-228 -14 -16 -42 -48 -61 -70 -23 -25 -32 -44 -26 -50 6 -6 -4 -23 -27 -46
l-37 -38 -50 34 c-38 26 -54 32 -64 23 -10 -8 -13 -7 -13 5 0 8 5 17 11 19 12
4 -208 215 -306 294 -33 26 -63 53 -68 59 -4 6 -25 -9 -53 -38 l-46 -48 61
-44 c90 -62 103 -72 209 -155 54 -41 108 -85 121 -97 19 -17 28 -19 38 -11 15
12 17 0 4 -21 -7 -11 -25 -1 -83 47 -66 53 -81 61 -129 66 -98 9 -230 19 -434
31 -49 3 -117 8 -150 10 -33 3 -116 7 -185 10 -74 4 -127 11 -131 17 -4 6 -1
28 6 49 8 20 10 40 7 44 -4 4 13 5 38 1 39 -5 41 -4 17 5 -29 11 -28 32 1 22
9 -3 14 -3 10 2 -4 4 0 14 10 22 15 12 14 13 -13 7 -16 -4 -36 -11 -42 -16
-12 -10 -15 -4 -38 60 -3 9 0 10 15 2 10 -5 31 -9 47 -9 21 1 23 3 8 6 -11 3
-24 10 -30 15 -7 7 -7 9 0 6 6 -2 21 7 35 20 l25 24 -25 -7 c-14 -4 -38 -14
-53 -22 -26 -13 -30 -12 -58 12 -17 14 -35 25 -41 25 -14 0 -1 13 15 16 7 1
37 4 67 8 30 3 89 10 130 16 41 5 98 11 125 15 28 3 66 7 85 10 19 3 57 7 84
10 26 2 65 7 85 9 20 3 56 7 81 10 25 3 101 12 170 21 68 8 127 15 131 15 3 0
5 11 4 24 -4 33 18 62 65 86 77 40 96 130 39 194 -23 27 -41 37 -76 42 -48 7
-93 40 -93 69 0 8 -3 14 -7 14 -5 -1 -26 -5 -48 -9z m237 -1037 c13 -16 14
-25 10 -59 -1 -6 -13 -16 -27 -22 -56 -26 -109 35 -70 78 22 25 67 26 87 3z
m108 -115 c0 -5 -9 -4 -20 2 -11 6 -18 15 -14 21 6 11 34 -7 34 -23z m-994
-123 c23 -15 40 -53 32 -74 -2 -6 -25 0 -55 14 -29 13 -53 20 -53 16 0 -5 23
-18 51 -30 51 -21 52 -22 34 -41 -39 -43 -145 -34 -184 17 -27 33 -26 56 2 88
38 45 113 49 173 10z m82 -146 c-7 -11 -29 -30 -48 -41 -19 -12 -47 -32 -62
-44 -26 -21 -68 -23 -68 -3 0 12 61 49 81 49 9 0 36 13 60 30 53 35 52 35 37
9z m-102 -141 c57 -27 64 -33 47 -41 -15 -6 -29 -2 -58 17 -21 14 -46 26 -56
26 -11 0 -19 7 -19 15 0 21 10 19 86 -17z m-105 -25 c1 -10 0 -33 -1 -50 -1
-18 0 -33 2 -33 2 0 27 9 57 21 43 16 56 18 62 7 22 -35 -21 -87 -81 -98 -33
-6 -50 -3 -83 14 -48 25 -66 55 -59 92 8 45 101 86 103 47z m79 -4 l34 -21
-24 -13 c-14 -7 -37 -15 -52 -19 -21 -5 -26 -3 -23 12 2 9 4 27 4 40 1 28 16
28 61 1z"/>
<path d="M13516 8315 c-22 -22 -9 -47 23 -43 29 3 42 35 19 49 -18 12 -24 11
-42 -6z"/>
<path d="M3784 9175 c-3 -14 -5 -27 -3 -29 2 -2 101 -21 219 -43 214 -40 215
-40 221 -19 3 12 3 24 0 27 -3 4 -96 23 -205 44 -110 20 -205 39 -212 42 -8 3
-16 -6 -20 -22z"/>
<path d="M3761 9041 c-6 -40 -10 -76 -8 -78 5 -4 26 -8 87 -16 53 -7 116 -16
162 -22 203 -29 190 -32 203 48 6 37 9 67 5 68 -3 0 -12 2 -20 4 -8 1 -46 8
-85 14 -38 6 -81 13 -95 16 -14 3 -41 8 -60 10 -19 3 -67 11 -107 18 l-71 13
-11 -75z"/>
<path d="M4100 8838 c-48 -17 -472 -132 -525 -142 -111 -23 -191 -47 -202 -62
-14 -19 -15 -46 -16 -327 0 -166 2 -190 18 -207 10 -11 26 -20 35 -20 37 0
547 -139 690 -188 85 -29 82 -35 65 123 -1 17 -3 37 -4 45 -1 12 -15 16 -68
15 -160 -1 -319 79 -375 189 -28 54 -29 147 -3 200 57 118 218 197 393 192 59
-1 58 -2 67 84 3 30 7 64 9 75 3 20 -10 46 -23 44 -3 -1 -31 -10 -61 -21z"/>
<path d="M12707 8800 c-14 -11 -33 -20 -44 -20 -14 -1 42 -27 67 -31 23 -5 50
3 44 12 -3 6 0 15 7 20 10 6 11 9 2 9 -7 0 -13 7 -13 15 0 21 -33 19 -63 -5z"/>
<path d="M12730 8713 c-8 -4 -19 -12 -25 -19 -5 -7 -19 -14 -30 -17 -15 -4
-14 -5 7 -6 14 0 28 -5 30 -10 3 -10 21 -14 56 -12 14 1 21 5 16 12 -3 6 0 15
7 20 10 6 11 9 2 9 -7 0 -13 7 -13 15 0 15 -22 18 -50 8z"/>
<path d="M3228 8620 c-15 -4 -45 -11 -65 -14 -32 -4 -106 -19 -208 -40 -11 -2
-40 -7 -65 -11 -95 -14 -93 -10 -93 -194 0 -121 2 -135 19 -145 20 -12 21 -12
189 -46 129 -26 122 -24 202 -41 34 -7 65 -11 68 -8 10 11 11 489 1 499 -11
11 -11 11 -48 0z"/>
<path d="M12732 8609 c-11 -4 -23 -12 -27 -18 -3 -6 -21 -11 -38 -11 l-32 1
25 15 c25 15 25 15 -10 8 -31 -6 -85 -33 -78 -39 10 -10 78 -22 78 -14 0 5
-12 9 -27 9 -14 0 -23 3 -19 7 9 9 98 4 111 -7 10 -8 38 -13 65 -11 15 1 23
41 8 41 -4 0 -5 6 -2 14 6 16 -19 18 -54 5z"/>
<path d="M2545 8504 c-44 -7 -109 -16 -145 -19 -36 -4 -85 -8 -110 -11 -25 -2
-67 -6 -95 -10 -75 -8 -137 -12 -285 -19 -116 -6 -137 -9 -152 -26 -9 -10 -15
-27 -13 -37 2 -9 4 -22 4 -28 2 -23 20 -27 208 -39 56 -3 113 -8 125 -10 13
-2 64 -6 113 -10 50 -4 92 -8 95 -10 3 -1 36 -6 73 -10 37 -3 76 -8 85 -10 18
-3 90 -14 132 -20 115 -17 109 -17 115 7 3 13 4 77 3 143 l-3 120 -35 1 c-19
0 -71 -5 -115 -12z"/>
<path d="M1670 8461 c-16 -32 -8 -152 12 -164 30 -19 45 7 47 82 1 52 -2 73
-14 85 -21 21 -32 20 -45 -3z"/>
<path d="M1593 8446 c-22 -19 -45 -25 -103 -30 -41 -4 -93 -9 -115 -11 -22 -3
-62 -7 -89 -10 -27 -2 -51 -6 -53 -8 -2 -3 29 -8 69 -12 40 -4 82 -9 93 -11
11 -1 54 -6 95 -10 56 -5 80 -12 97 -28 45 -43 63 -26 63 60 0 79 -15 95 -57
60z"/>
<path d="M4030 7795 c-52 -7 -120 -16 -150 -20 -30 -4 -66 -9 -80 -10 -14 -2
-47 -6 -75 -9 -27 -4 -69 -9 -91 -12 -97 -11 -107 -17 -100 -52 3 -15 8 -45
11 -67 5 -34 33 -191 50 -274 5 -28 23 -43 45 -36 16 5 353 80 405 90 138 28
190 42 187 54 -1 7 -3 32 -4 57 -1 24 -6 44 -10 44 -4 0 -5 14 -1 30 3 17 1
30 -4 30 -5 0 -8 14 -5 30 2 17 0 30 -6 30 -5 0 -10 10 -10 23 0 12 -2 31 -5
42 -3 11 -6 30 -6 43 -1 26 -6 26 -151 7z"/>
<path d="M3437 7700 c-79 -30 -144 -86 -168 -143 -8 -19 -22 -30 -41 -34 -18
-3 -27 -11 -26 -21 2 -11 -25 -23 -104 -46 -59 -17 -110 -35 -115 -39 -4 -5
-1 -6 7 -3 8 2 63 7 123 10 92 4 107 3 107 -10 0 -11 8 -15 28 -13 21 3 40 -6
71 -33 23 -20 63 -41 89 -48 62 -17 172 -20 172 -6 0 6 -11 67 -24 136 -14 69
-27 150 -31 180 -11 101 -11 100 -88 70z"/>
<path d="M12817 7613 c-2 -10 3 -30 10 -45 13 -27 12 -28 -9 -24 -13 2 -33 -3
-45 -10 -13 -8 -23 -10 -23 -4 0 5 -11 17 -25 26 -22 14 -27 14 -55 1 -24 -12
-30 -13 -30 -2 0 15 -47 33 -72 27 -10 -2 -18 -8 -18 -15 0 -6 -9 -1 -20 11
-23 24 -71 29 -88 10 -5 -7 -13 -31 -16 -53 -4 -22 -8 -47 -11 -55 -2 -8 -6
-26 -9 -40 -2 -14 -9 -45 -16 -70 -7 -25 -13 -52 -15 -60 -5 -27 -54 -194 -73
-251 -11 -35 -16 -64 -11 -77 9 -23 49 -38 74 -28 8 3 25 -5 39 -19 24 -24 48
-28 74 -12 6 5 12 4 12 -2 0 -34 71 -55 99 -28 8 6 11 7 8 1 -7 -13 28 -54 46
-54 7 -1 -1 -11 -17 -24 -34 -28 -29 -66 8 -66 24 0 210 145 316 246 204 195
210 203 171 224 -27 14 -26 14 -59 -17 -16 -16 -42 -39 -58 -53 -28 -23 -28
-23 2 9 l32 33 -18 57 c-10 31 -21 63 -24 72 -5 12 -1 18 18 21 14 3 24 1 23
-4 -1 -6 8 -14 20 -19 20 -7 24 -4 33 32 16 58 10 67 -47 66 -70 -1 -86 12
-117 95 -16 40 -35 83 -42 96 -17 27 -61 30 -67 5z m230 -235 c-3 -8 -6 -5 -6
6 -1 11 2 17 5 13 3 -3 4 -12 1 -19z"/>
<path d="M4200 7399 c-19 -5 -48 -11 -65 -14 -16 -3 -46 -10 -65 -15 -19 -5
-46 -11 -60 -14 -76 -14 -215 -48 -231 -57 -22 -11 -21 -27 15 -159 13 -47 27
-98 31 -115 14 -63 33 -67 145 -30 41 13 140 45 220 69 122 38 145 47 142 63
-7 38 -43 153 -48 153 -4 0 -33 -7 -67 -16 -68 -18 -107 -9 -107 25 0 28 35
49 103 63 42 9 56 16 52 26 -3 7 -5 18 -5 23 0 11 -12 10 -60 -2z"/>
<path d="M3702 7267 c-38 -39 -38 -44 -12 -141 12 -42 23 -85 25 -96 10 -50
16 -57 70 -72 30 -8 52 -12 50 -8 -3 4 -12 34 -20 66 -46 171 -67 250 -69 261
-4 24 -13 22 -44 -10z"/>
<path d="M13037 7068 c-26 -27 -27 -32 -16 -63 14 -38 42 -50 64 -29 12 12 12
21 -2 67 -8 28 -16 52 -17 53 0 1 -14 -12 -29 -28z"/>
<path d="M4287 7050 c-26 -10 -49 -18 -50 -18 -1 1 -108 -33 -237 -75 -129
-42 -247 -79 -262 -82 -51 -13 -53 -27 -19 -128 18 -50 39 -97 47 -103 11 -9
72 10 277 87 144 54 265 99 270 99 4 0 15 -8 26 -19 18 -18 16 -20 -123 -74
-77 -31 -178 -70 -223 -87 -46 -18 -83 -38 -83 -45 0 -43 210 -495 231 -495
11 0 64 27 288 148 46 24 82 39 79 32 -3 -11 -58 -42 -311 -178 -42 -22 -71
-32 -77 -26 -19 19 -179 360 -238 507 -6 14 -15 7 -52 -43 -25 -33 -68 -91
-97 -128 l-51 -68 92 -189 c122 -251 256 -489 321 -573 2 -2 29 2 61 7 60 11
89 15 178 27 35 4 69 18 112 47 98 66 324 220 386 264 l58 41 -18 23 c-107
142 -330 566 -427 814 -32 83 -62 155 -67 160 -9 10 -61 -38 -70 -65 -6 -19
-45 -3 -51 20 -6 24 42 77 79 86 18 5 24 12 22 27 -4 27 -14 28 -71 7z"/>
<path d="M12221 6832 c-5 -9 -25 -56 -44 -103 -20 -47 -49 -113 -65 -147 -17
-34 -28 -62 -26 -62 13 0 -244 -447 -278 -484 -10 -11 -18 -26 -18 -33 0 -7
-4 -13 -8 -13 -4 0 -16 -15 -27 -32 -10 -18 -36 -55 -57 -82 l-38 -48 47 -36
c43 -32 154 -116 208 -157 11 -8 34 -26 50 -38 17 -13 46 -35 66 -50 l36 -27
50 67 c28 38 69 95 92 127 22 33 41 54 41 47 0 -13 -59 -99 -138 -204 -42 -56
-43 -59 -26 -78 35 -39 48 -28 173 156 66 97 60 89 66 83 3 -3 -14 -35 -39
-72 l-46 -66 25 -24 c30 -30 32 -62 5 -71 -19 -6 -60 9 -60 23 0 4 7 18 16 30
9 13 14 26 11 29 -3 2 -13 -8 -23 -24 -10 -15 -29 -41 -41 -56 l-23 -29 22
-18 c13 -9 38 -21 57 -25 32 -7 33 -6 28 17 -5 20 -1 26 25 36 28 10 30 14 25
48 -5 29 -3 35 9 30 22 -9 57 32 51 60 -2 14 0 24 7 23 29 -4 38 2 33 21 -3
13 -1 18 6 13 26 -15 293 -194 315 -209 12 -9 39 -19 58 -21 20 -2 49 -10 64
-18 15 -8 37 -11 49 -8 19 5 22 11 17 34 -4 24 -1 29 25 38 33 11 51 47 38 73
-13 24 -12 25 15 32 41 10 58 35 52 72 -6 28 -4 33 16 36 41 6 33 40 -19 88
l-48 44 60 19 c38 12 79 17 112 14 l52 -4 -33 37 c-18 20 -41 57 -52 83 -18
44 -28 52 -64 48 -12 -2 -12 0 -2 7 11 7 10 10 -3 16 -25 9 -28 8 -21 -10 5
-12 2 -15 -10 -10 -8 3 -18 6 -20 6 -2 0 1 8 7 18 12 18 3 34 -47 86 -6 6 -13
18 -17 26 -4 12 -6 12 -6 -2 -1 -9 -5 -19 -10 -22 -16 -10 0 31 20 53 11 12
17 26 13 33 -5 7 -3 8 6 3 10 -6 12 -4 7 8 -4 11 -1 17 7 17 7 0 19 6 25 14
10 11 8 15 -6 19 -15 4 -14 5 4 6 27 1 40 19 19 27 -9 3 -16 10 -16 15 0 5 8
4 19 -2 11 -7 26 -9 37 -4 16 6 14 9 -16 18 -23 7 -29 12 -18 14 9 2 25 0 35
-5 21 -11 46 -5 37 9 -3 5 -14 9 -25 9 -12 0 -17 4 -13 11 4 8 0 8 -15 0 -16
-9 -21 -9 -19 0 2 7 -5 15 -14 17 -13 2 -24 -12 -44 -55 -14 -32 -41 -91 -60
-130 l-33 -73 -69 33 c-38 18 -85 43 -106 56 -29 19 -39 21 -51 11 -20 -16
-19 -5 1 25 15 23 15 25 0 25 -26 0 -29 26 -8 67 33 66 73 155 70 158 -2 2
-74 32 -161 68 -161 66 -174 73 -165 82 3 3 30 -6 61 -19 l56 -25 16 49 c16
49 14 70 -7 70 -9 0 -79 26 -275 101 -17 6 -25 4 -32 -9z m390 -696 c-44 -80
-48 -91 -29 -80 6 4 9 3 5 -2 -3 -5 16 -18 41 -28 26 -11 82 -39 126 -63 43
-24 82 -43 86 -43 5 0 28 41 51 90 24 50 47 90 51 90 4 0 8 8 8 17 0 9 3 14 6
10 4 -3 -18 -55 -47 -114 -30 -59 -52 -114 -51 -121 2 -7 -21 1 -55 19 -32 18
-89 50 -126 71 -38 21 -72 38 -75 38 -4 0 -16 7 -27 16 -19 14 -18 16 25 98
25 47 47 83 49 81 2 -2 -15 -38 -38 -79z m381 -58 c-9 -9 -9 -15 1 -27 8 -10
4 -9 -15 3 -28 18 -37 36 -18 36 6 0 10 -6 10 -12 0 -7 5 -5 11 5 6 10 13 16
17 13 3 -4 0 -12 -6 -18z m-61 -267 c-8 -15 -7 -20 5 -25 30 -11 44 -6 44 17
0 17 2 19 9 8 23 -35 -25 -56 -64 -27 -19 13 -15 46 5 46 7 0 8 -6 1 -19z
m136 -95 c-4 -9 -14 -13 -28 -11 -33 7 -41 -3 -23 -30 12 -18 13 -28 4 -44 -6
-12 -15 -22 -20 -22 -20 -3 -25 -5 -40 -13 -8 -5 -12 -6 -8 -1 4 4 0 14 -10
21 -16 12 -16 14 0 30 15 15 16 15 15 -2 -3 -26 46 -27 51 -1 5 26 -17 50 -34
37 -10 -9 -11 -6 -7 10 3 11 11 19 19 18 7 -2 12 2 11 7 -1 6 -5 9 -9 8 -15
-5 -8 11 14 34 l22 24 24 -25 c15 -14 22 -31 19 -40z m-151 46 c51 -34 20
-116 -40 -106 -37 6 -40 21 -12 68 27 47 33 51 52 38z m-544 -79 c23 -21 23
-43 0 -43 -29 0 -54 23 -46 43 8 21 22 22 46 0z m-32 -67 c14 -25 13 -28 -3
-41 -20 -15 -56 -9 -64 11 -6 16 27 66 41 61 6 -2 18 -16 26 -31z m516 7 c40
-53 -17 -115 -76 -83 -19 10 -18 12 8 55 29 48 47 55 68 28z m81 -33 c-1 -3 4
-15 11 -28 17 -30 6 -62 -21 -63 -55 -3 -77 11 -51 32 10 8 15 9 11 2 -10 -16
9 -26 33 -18 23 7 26 37 6 54 -11 10 -17 8 -26 -6 -11 -17 -11 -17 -6 0 3 10
6 22 6 27 0 5 9 8 19 7 11 0 19 -4 18 -7z m-167 -70 c0 -5 -4 -10 -9 -10 -15
0 -22 -33 -9 -42 27 -17 40 -9 34 20 -6 25 -5 26 8 9 23 -29 9 -50 -28 -43
-42 9 -49 19 -35 49 12 26 39 38 39 17z m115 -32 c5 4 5 2 1 -5 -3 -6 -2 -14
4 -18 20 -12 11 -45 -12 -45 -21 0 -21 1 -3 14 18 13 18 15 2 30 -17 17 -43
13 -32 -5 4 -5 1 -9 -4 -9 -12 0 -15 33 -5 43 4 3 14 2 24 -3 10 -5 21 -6 25
-2z m-661 -20 c9 -12 16 -26 16 -30 0 -13 -35 -9 -55 6 -16 12 -17 16 -6 30
18 21 27 20 45 -6z"/>
<path d="M13006 5745 c-6 -16 22 -35 41 -28 9 3 10 10 3 24 -13 23 -36 25 -44
4z"/>
<path d="M12881 5720 c-23 -32 -21 -50 8 -50 36 0 55 46 28 69 -10 8 -19 4
-36 -19z"/>
<path d="M12806 5596 c-22 -35 -20 -46 8 -46 31 0 53 26 40 48 -16 25 -30 25
-48 -2z"/>
<path d="M3661 6826 c-7 -9 -31 -21 -52 -28 -27 -7 -39 -17 -39 -29 0 -16 4
-17 26 -9 27 11 27 9 -9 -43 -10 -16 -18 -29 -16 -30 2 -2 38 -13 79 -26 41
-13 81 -26 87 -28 8 -3 0 31 -20 88 -19 52 -36 100 -38 108 -4 10 -7 10 -18
-3z"/>
<path d="M12574 6716 c-10 -8 -20 -19 -20 -25 -1 -6 -2 -12 -4 -13 -1 -2 -3
-10 -5 -18 -2 -8 -6 -23 -10 -32 -11 -27 32 -40 98 -29 5 0 5 7 1 14 -6 10 -4
10 7 0 15 -15 33 -17 25 -4 -3 4 6 6 21 3 l26 -5 -32 31 c-18 17 -32 33 -31
37 1 7 -42 55 -51 55 -3 0 -14 -6 -25 -14z m31 -5 c3 -5 1 -12 -5 -16 -5 -3
-10 1 -10 9 0 18 6 21 15 7z m9 -36 c-4 -8 -11 -12 -16 -9 -6 4 -5 10 3 15 19
12 19 11 13 -6z m6 -45 c0 -6 -9 -2 -20 7 -11 10 -20 19 -20 21 0 1 9 -2 20
-8 11 -6 20 -15 20 -20z m21 13 c13 -16 12 -17 -3 -4 -10 7 -18 15 -18 17 0 8
8 3 21 -13z m-46 -23 c10 -11 16 -20 13 -20 -3 0 -13 9 -23 20 -10 11 -16 20
-13 20 3 0 13 -9 23 -20z m-34 -7 c13 -16 12 -17 -3 -4 -10 7 -18 15 -18 17 0
8 8 3 21 -13z"/>
<path d="M12730 6595 c0 -8 6 -15 14 -15 8 0 23 -3 33 -7 11 -4 8 2 -9 15 -31
26 -38 27 -38 7z"/>
<path d="M12699 6413 c-17 -37 -34 -77 -38 -87 -7 -17 7 -26 108 -74 64 -29
121 -55 126 -58 6 -2 28 38 50 89 l41 93 -119 49 c-65 28 -123 52 -128 53 -5
2 -23 -27 -40 -65z"/>
<path d="M13120 6379 c19 -6 47 -17 63 -25 33 -18 36 -12 3 9 -12 9 -41 18
-62 21 l-39 6 35 -11z"/>
<path d="M13130 6342 c0 -15 52 -34 63 -23 7 7 1 14 -17 21 -33 12 -46 13 -46
2z"/>
<path d="M13101 6316 c-9 -10 -5 -17 15 -31 27 -17 53 -8 40 14 -14 22 -43 31
-55 17z"/>
<path d="M13202 6308 c-9 -9 -8 -16 5 -30 19 -22 29 -23 36 -4 8 21 -26 49
-41 34z"/>
<path d="M13061 6283 c-7 -14 -5 -23 11 -40 20 -21 23 -22 39 -7 19 17 17 21
-23 52 -14 11 -18 10 -27 -5z"/>
<path d="M13166 6265 c-6 -16 13 -55 26 -55 4 0 12 8 17 18 8 14 5 23 -10 35
-24 21 -25 21 -33 2z"/>
<path d="M13248 6248 c-3 -7 3 -24 13 -37 22 -27 25 -8 5 28 -9 17 -14 20 -18
9z"/>
<path d="M13022 6238 c-7 -9 -5 -19 7 -34 14 -18 20 -19 34 -9 15 10 15 14 1
33 -17 25 -27 27 -42 10z"/>
<path d="M13126 6221 c-15 -16 -15 -22 -4 -40 16 -26 20 -26 41 -3 14 15 14
19 -3 39 -17 22 -18 22 -34 4z"/>
<path d="M13218 6202 c-13 -15 -14 -21 -1 -51 l14 -34 19 28 c13 21 16 34 9
46 -14 27 -25 30 -41 11z"/>
<path d="M12992 6190 c-10 -16 -10 -25 0 -44 l13 -24 17 22 c15 21 15 24 -1
44 -16 22 -16 22 -29 2z"/>
<path d="M13076 6175 c-14 -14 -14 -20 -4 -34 7 -9 13 -17 14 -19 1 -1 9 0 18
4 19 7 21 24 3 48 -13 17 -14 17 -31 1z"/>
<path d="M13166 6151 c-16 -18 -16 -20 1 -48 17 -28 19 -29 36 -12 17 16 17
19 2 48 -18 37 -17 36 -39 12z"/>
<path d="M13262 6120 c-11 -23 -22 -40 -25 -38 -3 2 -9 -1 -14 -6 -5 -5 2 -6
17 -3 14 4 32 7 40 7 21 0 42 37 35 61 -10 31 -31 22 -53 -21z"/>
<path d="M13030 6125 c-19 -22 5 -48 31 -34 16 8 17 13 6 29 -14 24 -21 25
-37 5z"/>
<path d="M13122 6114 c-16 -17 -15 -22 7 -50 16 -20 21 -21 30 -10 17 21 -19
79 -37 60z"/>
<path d="M13337 6103 c-13 -12 -7 -23 12 -23 11 0 22 -9 26 -19 6 -21 38 -36
54 -27 5 3 39 -8 76 -24 38 -17 69 -29 71 -28 1 2 -23 17 -54 33 -31 16 -70
43 -85 59 -20 20 -31 26 -39 18 -8 -8 -17 -7 -33 4 -12 8 -25 11 -28 7z"/>
<path d="M13072 6078 c-15 -15 12 -48 40 -48 24 0 23 6 -5 36 -18 19 -25 22
-35 12z"/>
<path d="M4785 5855 c-66 -47 -128 -91 -137 -98 -9 -6 -70 -49 -135 -94 -468
-327 -558 -392 -567 -406 -8 -12 -5 -21 9 -36 l18 -21 34 20 c19 11 40 20 47
20 11 0 61 -60 90 -108 6 -11 -2 -24 -29 -49 l-37 -34 22 -25 23 -24 36 27
c36 27 371 292 402 318 10 7 48 37 85 66 98 75 178 143 182 152 2 4 10 7 17 7
7 0 15 3 17 8 3 7 136 115 178 145 l22 15 -23 31 c-12 17 -25 31 -27 31 -3 0
-34 -22 -71 -49 -62 -46 -91 -56 -148 -53 -21 2 -22 3 -6 47 9 28 26 53 42 63
14 9 28 19 31 22 12 14 72 52 75 48 2 -2 -22 -23 -55 -47 -37 -27 -63 -54 -69
-74 -13 -36 -10 -40 28 -39 37 1 75 21 126 66 55 49 36 45 -31 -5 -30 -23 -58
-39 -62 -35 -7 7 21 35 84 84 16 12 20 18 9 13 -11 -5 -37 -23 -59 -40 -42
-33 -79 -44 -56 -16 7 8 35 31 61 51 42 31 47 37 35 50 -8 8 -18 23 -21 34 -3
11 -9 20 -13 20 -4 -1 -61 -39 -127 -85z"/>
<path d="M13243 5829 c6 -10 15 -16 19 -13 4 3 18 0 30 -7 21 -11 20 -9 -3 13
-32 30 -63 35 -46 7z"/>
<path d="M11623 5768 c-29 -40 -52 -68 -207 -242 -33 -38 -97 -105 -140 -148
-76 -74 -79 -79 -60 -92 68 -51 152 -8 138 70 -3 16 -10 34 -15 41 -8 9 -3 11
25 6 39 -6 86 17 86 42 0 26 20 16 108 -52 47 -38 90 -71 96 -75 7 -5 5 -12
-6 -20 -30 -23 -32 -62 -6 -94 13 -16 25 -42 26 -58 1 -20 16 -43 45 -71 57
-57 79 -67 112 -55 15 6 38 8 52 5 66 -12 119 45 97 104 -6 17 -6 36 0 53 7
20 5 33 -7 52 -25 38 -21 46 23 44 50 -2 80 23 80 66 0 17 -4 38 -10 46 -5 9
-5 19 1 26 11 14 -2 54 -24 72 -8 7 -30 14 -49 16 -18 1 -45 8 -60 16 -32 15
-78 6 -78 -16 0 -22 -11 -16 -77 46 l-58 55 0 66 c0 54 -5 72 -25 102 -14 20
-28 37 -31 37 -3 0 -19 -19 -36 -42z m99 -210 c7 -7 32 -26 56 -42 24 -16 45
-33 48 -38 8 -13 -13 -9 -28 5 -7 7 -25 18 -40 24 -23 10 -30 9 -52 -8 l-26
-20 -45 42 -46 43 43 11 c43 11 64 7 90 -17z m-126 -36 c11 -10 32 -27 46 -36
25 -16 26 -20 13 -39 -17 -26 -15 -43 9 -79 21 -32 18 -53 -4 -34 -8 7 -44 42
-80 79 l-64 67 22 20 c12 12 22 25 22 30 0 15 14 12 36 -8z"/>
<path d="M13106 5705 c-4 -16 -13 -25 -27 -25 -14 0 -19 -6 -18 -17 6 -35 -12
-73 -40 -87 -21 -12 -28 -21 -26 -40 4 -29 -29 -76 -51 -76 -11 0 -13 -6 -9
-19 4 -13 -1 -27 -14 -40 -12 -12 -17 -21 -12 -21 5 0 37 -16 70 -34 l61 -35
38 57 c38 56 162 267 162 275 0 4 -22 19 -101 71 -26 16 -27 16 -33 -9z"/>
<path d="M4844 5539 c-126 -101 -231 -186 -234 -189 -3 -3 -42 -35 -88 -70
-46 -35 -88 -72 -93 -82 -11 -20 -7 -29 39 -80 l24 -26 -29 -25 c-15 -14 -50
-44 -78 -67 -27 -23 -70 -68 -95 -100 -97 -125 -258 -338 -276 -365 l-19 -30
35 21 c19 12 62 36 95 54 168 93 355 210 399 250 26 25 62 57 78 73 l30 27 38
-40 c21 -22 43 -40 49 -40 6 0 66 53 132 118 66 64 155 150 197 191 42 41 123
119 180 174 l103 101 -38 38 -37 38 -25 -23 c-14 -12 -30 -27 -36 -32 -67 -65
-108 -83 -166 -70 -33 7 -40 30 -27 90 8 39 19 53 79 102 68 56 69 57 51 77
-10 12 -28 31 -39 44 l-20 23 -229 -182z"/>
<path d="M13219 5583 c-23 -43 -71 -124 -106 -181 -60 -96 -74 -140 -40 -130
11 4 102 146 142 223 9 17 31 57 49 90 19 33 32 63 29 68 -13 21 -35 -1 -74
-70z"/>
<path d="M5103 5577 c-58 -47 -82 -87 -79 -132 2 -26 6 -30 35 -33 19 -2 43
-1 55 2 21 6 126 97 126 110 0 16 -23 2 -67 -39 -26 -24 -54 -45 -60 -45 -24
0 -13 30 23 62 58 52 65 60 60 65 -3 3 -29 -15 -58 -41 -29 -25 -58 -46 -65
-46 -27 0 -12 27 43 76 70 62 59 79 -13 21z"/>
<path d="M13281 5585 c-11 -20 -21 -38 -21 -41 0 -2 -27 -49 -60 -103 -33 -55
-60 -101 -60 -104 0 -4 15 -20 32 -36 29 -27 31 -32 18 -45 -13 -11 -20 -11
-48 0 -32 14 -32 15 -16 39 9 14 14 28 12 31 -9 8 -40 -47 -34 -61 6 -17 79
-40 100 -32 11 5 14 14 10 37 -6 26 -4 30 14 30 30 0 51 35 45 77 -3 22 -1 33
5 29 5 -3 21 3 35 14 26 21 41 56 26 66 -19 12 -9 31 15 27 50 -10 35 57 -20
89 l-32 19 -21 -36z m65 -8 c42 -36 6 -65 -46 -37 -17 9 -18 14 -8 35 14 31
20 31 54 2z m-40 -72 c8 -13 14 -32 12 -42 -4 -23 -48 -45 -64 -33 -6 6 -14 7
-17 3 -13 -13 -7 27 10 62 20 41 36 44 59 10z m-64 -112 c24 -42 8 -73 -37
-73 -45 0 -52 17 -25 64 26 43 40 45 62 9z"/>
<path d="M13306 5565 c-3 -8 -1 -15 3 -15 5 0 16 -3 25 -6 22 -9 20 9 -3 23
-15 10 -20 9 -25 -2z"/>
<path d="M13257 5481 c-13 -27 -13 -30 3 -34 26 -7 42 7 38 33 -5 35 -24 35
-41 1z"/>
<path d="M13195 5374 c-20 -31 -8 -50 24 -39 24 7 28 37 7 54 -11 9 -17 6 -31
-15z"/>
<path d="M12382 5606 c12 -15 -13 -64 -36 -70 -17 -4 -23 -13 -23 -33 0 -15
-10 -34 -21 -44 -21 -17 -21 -17 21 -45 23 -16 53 -39 67 -51 28 -26 40 -28
60 -10 8 6 6 2 -4 -10 -20 -24 -15 -56 6 -47 16 6 138 185 138 202 0 30 -31 6
-74 -58 -25 -38 -49 -70 -51 -70 -3 0 13 27 35 60 23 33 39 64 36 69 -3 4 -40
32 -83 61 -43 29 -75 50 -71 46z"/>
<path d="M13373 5503 c-14 -3 -20 -9 -16 -19 8 -22 -16 -70 -43 -84 -17 -10
-24 -22 -24 -43 0 -20 -10 -38 -31 -58 -17 -16 -29 -35 -26 -42 2 -6 31 -18
63 -25 33 -8 104 -24 159 -38 l100 -24 17 23 c10 12 22 34 29 49 13 32 12 33
-103 161 -81 89 -99 108 -101 106 -1 -1 -12 -4 -24 -6z"/>
<path d="M12644 5455 c33 -13 63 -30 67 -37 6 -9 9 -10 9 -1 0 22 -65 63 -101
63 -32 0 -30 -2 25 -25z"/>
<path d="M12573 5444 c-4 -11 -13 -25 -21 -33 -7 -8 -20 -25 -29 -38 -15 -23
-15 -25 18 -53 55 -47 160 -105 200 -111 21 -3 36 -2 33 3 -9 14 7 9 23 -7 8
-9 13 -19 10 -22 -12 -11 14 -43 34 -43 19 0 59 -16 69 -29 8 -10 100 -71 100
-67 0 3 -30 28 -66 57 -36 28 -70 63 -75 76 -6 16 -16 23 -34 23 -35 0 -86 73
-90 129 -3 43 -17 60 -80 100 -48 31 -84 37 -92 15z m71 -54 c56 -36 102 -77
95 -85 -3 -3 -19 6 -35 20 -16 14 -50 39 -76 56 -27 17 -48 33 -48 35 0 10 20
2 64 -26z m-9 -69 c39 -25 72 -48 75 -51 3 -3 18 -14 33 -24 16 -9 26 -20 23
-23 -6 -6 -152 91 -201 133 -38 33 -18 23 70 -35z"/>
<path d="M5143 5216 c-109 -107 -299 -293 -422 -413 -208 -204 -223 -221 -212
-241 15 -28 48 -28 73 0 10 12 25 23 32 24 8 1 37 -22 66 -51 52 -53 52 -53
35 -79 -10 -14 -21 -26 -26 -26 -18 0 -8 -39 14 -55 26 -19 3 -41 318 309 24
27 55 61 69 76 105 114 143 156 200 220 36 40 94 104 130 143 36 38 71 78 78
88 15 22 34 25 26 5 -3 -9 18 -31 58 -62 126 -95 178 -162 312 -408 89 -162
133 -220 196 -259 19 -11 37 -24 40 -27 5 -7 18 -9 93 -10 62 -1 157 42 217
99 24 22 41 43 39 45 -2 2 -58 31 -123 65 -190 99 -528 323 -656 435 -20 17
-57 49 -84 71 -27 22 -70 59 -95 82 -25 23 -49 43 -53 43 -3 0 -32 -27 -64
-60 -57 -60 -66 -65 -116 -74 -35 -6 -41 4 -32 50 5 26 25 56 70 104 61 64 63
68 46 84 -10 9 -21 16 -25 16 -4 0 -95 -87 -204 -194z"/>
<path d="M5349 5318 c-50 -52 -65 -74 -73 -110 -6 -25 -4 -28 22 -28 15 0 38
7 51 17 34 23 111 106 105 112 -3 3 -28 -18 -56 -47 -51 -53 -77 -68 -59 -33
6 10 24 32 41 47 17 16 36 38 42 49 6 11 -13 -4 -42 -32 -49 -50 -70 -63 -70
-45 0 4 16 24 36 43 34 32 60 69 50 69 -3 0 -24 -19 -47 -42z"/>
<path d="M12491 5326 c-10 -11 -6 -21 19 -50 58 -65 101 -83 169 -67 2 1 -18
13 -45 27 -27 14 -67 43 -90 65 -35 34 -43 38 -53 25z"/>
<path d="M12470 5286 c0 -23 63 -86 86 -86 16 0 16 2 -3 15 -12 8 -36 32 -52
52 -23 28 -31 33 -31 19z"/>
<path d="M13140 5285 c0 -8 2 -15 4 -15 2 0 11 -3 20 -6 23 -9 20 9 -4 24 -17
10 -20 10 -20 -3z"/>
<path d="M11142 5251 c-12 -10 -22 -21 -22 -25 0 -7 22 -33 116 -135 86 -94
114 -128 114 -138 0 -5 -11 -19 -24 -32 l-23 -22 -54 62 c-30 34 -59 67 -64
73 -6 6 -36 41 -68 78 l-56 68 -25 -23 -25 -22 114 -135 c63 -74 114 -139 114
-145 0 -5 -11 -19 -26 -29 l-26 -19 -26 30 c-14 16 -33 39 -41 49 -23 29 -93
116 -112 139 -9 11 -25 31 -36 44 l-19 25 -26 -20 -25 -21 49 -64 c27 -35 55
-71 62 -79 6 -8 35 -45 64 -81 l52 -66 -24 -23 c-13 -12 -30 -20 -37 -18 -7 3
-58 67 -113 141 -55 75 -104 136 -108 136 -4 1 -18 -6 -32 -15 l-23 -15 38
-52 c183 -247 179 -241 164 -257 -18 -18 -16 -20 -135 150 -45 63 -85 119 -90
124 -8 9 -79 -30 -79 -43 0 -4 26 -46 58 -92 32 -46 107 -156 167 -244 60 -88
119 -175 132 -194 13 -19 23 -37 23 -40 -1 -3 -21 -19 -46 -35 -39 -24 -48
-26 -59 -15 -7 8 -90 134 -185 282 -95 147 -177 270 -182 273 -5 3 -24 -6 -43
-20 l-34 -26 66 -108 c36 -59 76 -123 89 -142 67 -105 174 -283 174 -290 0 -4
7 -13 15 -20 8 -7 15 -15 15 -19 0 -7 -100 -64 -105 -59 -2 1 -74 125 -160
273 -86 149 -164 280 -171 293 -14 21 -16 21 -43 8 -54 -28 -53 -33 14 -151
60 -108 257 -463 263 -476 2 -4 -13 -16 -31 -27 -69 -40 -68 -41 -121 60 -27
51 -78 149 -114 218 -121 233 -144 275 -152 283 -9 10 -80 -20 -80 -33 0 -5
67 -145 150 -312 l150 -303 -51 -22 c-28 -13 -54 -23 -58 -23 -3 1 -22 35 -41
78 -18 42 -60 133 -92 201 -32 67 -58 124 -58 126 0 2 -23 51 -50 109 l-50
106 -40 -20 c-22 -11 -40 -23 -40 -26 0 -3 30 -74 66 -157 37 -84 82 -188 101
-232 19 -44 38 -88 43 -97 5 -9 20 -44 34 -78 l25 -61 -47 -20 c-26 -11 -51
-21 -55 -22 -8 -2 -26 40 -177 413 -46 113 -86 208 -89 212 -3 3 -25 -1 -47
-10 l-42 -17 40 -105 c22 -58 45 -118 52 -135 31 -74 37 -95 31 -105 -19 -31
-41 2 -96 150 -33 85 -59 161 -59 168 0 15 -12 15 -45 0 -18 -8 -24 -17 -19
-27 41 -101 113 -326 106 -333 -5 -5 -22 -10 -37 -11 -29 -2 -29 -1 -84 166
l-56 168 -29 -5 c-16 -4 -31 -8 -33 -10 -3 -3 25 -94 88 -290 10 -33 19 -61
19 -62 0 -4 -73 -24 -75 -21 -1 1 -24 79 -52 172 -50 169 -50 170 -78 168 -15
-1 -30 -4 -32 -7 -3 -2 17 -82 45 -178 52 -185 52 -184 -3 -194 -21 -4 -26 1
-34 33 -5 21 -24 94 -41 163 -17 69 -34 132 -36 141 -5 19 -53 14 -60 -6 -3
-7 2 -41 11 -76 10 -35 18 -71 20 -79 2 -8 11 -44 20 -80 26 -100 28 -117 10
-124 -15 -5 -15 -24 0 -72 5 -18 339 74 518 142 38 15 70 25 71 23 2 -2 21
-51 43 -109 34 -89 38 -106 26 -115 -14 -11 -8 -34 42 -158 6 -13 0 -20 -23
-28 -31 -11 -42 -32 -42 -86 l0 -31 113 43 c469 179 982 462 1306 721 2 2 -17
13 -42 25 -44 22 -46 22 -73 4 -27 -18 -28 -18 -51 11 -13 16 -36 48 -51 71
-20 32 -32 41 -47 38 -16 -4 -32 13 -80 82 -33 48 -61 91 -63 94 -2 4 48 45
110 92 111 84 340 281 346 299 7 16 -51 58 -64 48 -10 -9 -55 34 -226 223 -34
37 -35 37 -56 18z"/>
<path d="M13598 5210 l-26 -47 40 -23 c43 -24 44 -23 76 31 l22 37 -22 14
c-61 40 -61 40 -90 -12z"/>
<path d="M13710 5180 c-12 -16 -18 -30 -15 -30 4 0 -1 -7 -9 -16 -41 -40 -1
-79 63 -62 19 6 48 7 64 4 30 -6 30 -6 10 11 -11 10 -24 34 -28 53 -17 75 -49
91 -85 40z"/>
<path d="M5519 5103 c-2 -79 -2 -164 0 -190 0 -11 22 -42 48 -68 57 -56 61
-76 33 -183 -26 -103 -25 -147 3 -202 38 -76 107 -100 215 -75 49 12 53 11 63
-7 5 -10 12 -49 15 -86 9 -138 20 -167 71 -181 45 -13 76 5 116 67 21 31 43
65 49 74 9 13 26 17 74 17 35 -1 71 2 81 5 15 5 113 180 113 201 0 3 -10 -1
-23 -9 -74 -49 -195 -61 -270 -28 -83 37 -182 149 -224 253 -9 24 -36 79 -60
122 -24 42 -43 80 -43 83 0 3 -14 26 -31 50 -33 48 -78 93 -171 168 l-58 47
-1 -58z"/>
<path d="M13658 4523 c-60 -81 -59 -79 -133 -168 -165 -198 -243 -283 -440
-480 -144 -143 -209 -203 -335 -311 -108 -92 -306 -252 -340 -274 -12 -8 -29
-21 -36 -28 -37 -35 -445 -309 -534 -358 -19 -10 -37 -22 -40 -25 -5 -5 -76
-47 -175 -102 -88 -48 -357 -183 -445 -222 -47 -21 -105 -47 -130 -58 -25 -11
-101 -42 -170 -69 -69 -27 -134 -53 -145 -58 -44 -21 -478 -160 -545 -175 -8
-2 -53 -13 -100 -25 -47 -12 -96 -24 -110 -26 -14 -3 -32 -7 -40 -10 -12 -4
-171 -38 -285 -60 -24 -5 -93 -16 -122 -19 -12 -2 -34 -6 -50 -9 -15 -3 -48
-8 -73 -11 -25 -3 -56 -8 -70 -10 -14 -3 -50 -7 -80 -10 -64 -7 -132 -14 -175
-20 -16 -2 -73 -7 -125 -10 -52 -4 -120 -8 -150 -11 -75 -6 -553 -5 -670 0
-103 6 -247 16 -295 21 -31 4 -89 10 -188 20 -32 4 -117 21 -189 38 l-132 32
89 75 c159 133 154 125 88 140 -40 10 -27 15 -308 -135 -47 -25 -67 -30 -90
-25 -94 22 -485 110 -511 114 -68 12 -80 -51 -27 -141 32 -56 68 -71 301 -129
l192 -48 106 -157 c84 -124 112 -158 138 -167 41 -15 66 -15 66 -1 0 10 -76
194 -102 246 -6 13 -9 25 -7 27 2 2 60 -9 129 -25 69 -16 157 -36 195 -44 39
-8 80 -17 92 -20 13 -3 40 -29 61 -58 54 -74 55 -76 32 -70 -14 4 -20 0 -20
-10 0 -16 21 -24 124 -47 38 -8 51 -8 57 2 10 15 8 17 -21 23 -29 6 -27 3 -35
47 l-7 37 38 -4 c214 -24 856 -24 1054 -1 19 3 67 7 105 11 39 3 84 7 100 9
17 3 57 7 90 10 82 9 104 12 220 31 130 21 154 25 190 30 17 2 41 6 55 9 25 6
206 43 245 50 11 2 49 12 85 21 36 9 76 19 90 21 14 3 39 9 55 14 17 5 127 38
245 73 202 60 437 140 505 171 17 8 80 35 142 60 253 104 623 288 813 405 19
11 46 27 60 34 68 33 508 328 565 379 5 5 5 12 -1 18 -7 7 -58 -24 -155 -93
-132 -94 -372 -251 -444 -291 -16 -9 -37 -21 -45 -26 -72 -46 -222 -126 -415
-220 -126 -61 -237 -115 -246 -120 -75 -39 -548 -220 -669 -255 -25 -8 -76
-23 -115 -35 -38 -12 -74 -22 -80 -24 -5 -1 -30 -8 -55 -15 -25 -7 -56 -15
-69 -18 -14 -2 -28 -6 -33 -9 -10 -6 -226 -59 -298 -73 -30 -5 -86 -17 -125
-25 -131 -28 -256 -49 -450 -75 -44 -6 -102 -13 -130 -16 -27 -2 -77 -7 -110
-11 -154 -16 -433 -28 -650 -28 -164 0 -463 11 -525 19 -14 2 -30 4 -36 4 -7
1 -15 8 -18 17 -5 13 2 14 47 10 109 -10 380 -20 567 -20 179 0 488 12 500 19
3 1 45 6 94 10 49 4 98 8 110 10 11 2 64 9 116 15 52 6 106 13 120 15 14 2 45
7 70 10 39 6 262 47 328 61 229 48 407 93 592 149 47 15 90 28 95 29 26 6 304
100 330 111 17 8 102 43 190 78 88 36 174 72 190 81 17 9 33 16 37 16 17 0
409 197 531 267 182 103 351 206 355 215 2 5 9 8 16 8 7 0 21 9 31 20 10 11
24 20 32 20 7 0 13 4 13 8 0 4 15 16 33 27 17 10 66 43 107 72 41 29 83 59 94
66 10 6 24 17 30 22 6 6 47 37 91 70 71 54 118 91 180 143 11 9 47 39 80 66
140 117 485 446 485 464 0 2 -6 10 -14 17 -11 12 -28 -1 -108 -83 -185 -188
-260 -257 -493 -450 -11 -10 -40 -33 -65 -52 -25 -19 -51 -41 -59 -48 -8 -7
-26 -21 -40 -30 -14 -9 -36 -26 -48 -36 -68 -58 -405 -283 -593 -396 -183
-110 -563 -305 -740 -380 -69 -29 -138 -58 -155 -65 -170 -74 -639 -235 -729
-251 -16 -3 -33 -7 -37 -9 -10 -7 -224 -62 -311 -81 -40 -8 -80 -17 -88 -19
-46 -10 -220 -45 -250 -49 -19 -3 -44 -7 -55 -10 -32 -6 -97 -17 -133 -21 -18
-2 -67 -9 -110 -14 -147 -20 -219 -27 -352 -36 -52 -3 -120 -8 -150 -11 -62
-6 -656 -6 -710 0 -19 2 -78 7 -130 11 -52 4 -99 11 -105 17 -7 7 24 8 100 2
61 -5 281 -9 490 -9 397 0 488 4 839 40 51 5 167 23 211 31 11 3 36 7 55 10
74 11 158 26 230 41 99 20 91 18 200 43 52 12 104 23 115 25 11 3 61 16 110
30 50 14 100 28 111 30 142 31 628 211 924 342 266 119 696 355 873 479 26 19
49 34 52 34 9 0 351 245 420 301 88 72 342 286 390 329 86 77 377 371 465 469
41 47 82 91 91 100 8 9 37 43 65 76 27 33 57 69 67 80 10 11 50 62 89 113 58
75 69 95 57 103 -21 13 -21 13 -69 -48 -57 -74 -162 -203 -245 -302 -145 -174
-601 -620 -743 -726 -7 -5 -21 -17 -30 -25 -159 -141 -557 -427 -802 -575
-226 -137 -505 -284 -720 -379 -111 -49 -170 -76 -195 -86 -137 -60 -509 -189
-720 -249 -270 -78 -738 -173 -959 -196 -33 -3 -62 -8 -65 -9 -3 -2 -48 -7
-100 -10 -52 -4 -97 -9 -101 -11 -17 -11 -285 -20 -595 -19 -409 0 -579 9
-614 31 -18 12 -21 17 -10 23 7 5 16 7 20 4 7 -4 47 -7 238 -20 123 -8 524 -8
676 0 134 7 194 11 340 26 226 24 265 29 325 40 27 5 71 12 97 16 26 3 134 24
238 45 105 22 201 42 215 45 14 3 43 10 65 16 22 5 47 11 55 13 8 2 41 11 74
20 32 9 64 18 70 19 6 2 45 13 86 26 41 13 80 25 85 26 48 11 323 106 410 141
61 25 115 46 120 47 12 3 38 15 230 99 155 68 414 198 545 274 47 27 92 52
100 56 18 9 39 22 97 60 24 15 45 27 49 27 3 0 23 14 44 30 21 17 41 30 44 30
6 0 127 82 228 154 31 23 66 48 78 56 31 21 210 160 261 202 24 21 37 38 31
42 -6 3 -37 -15 -69 -42 -32 -27 -107 -85 -168 -130 -60 -45 -115 -86 -121
-91 -5 -4 -30 -21 -55 -37 -24 -16 -46 -32 -49 -36 -3 -4 -30 -22 -60 -40 -30
-18 -89 -56 -130 -84 -80 -54 -207 -131 -305 -184 -33 -18 -76 -42 -95 -53
-64 -37 -344 -175 -440 -217 -209 -93 -490 -202 -490 -190 0 4 35 20 78 35
376 136 953 422 1214 602 26 18 50 33 52 33 4 0 99 61 121 78 6 4 37 25 70 47
32 22 66 45 75 52 8 6 65 49 125 94 61 46 148 115 195 153 47 39 96 80 109 91
215 176 551 510 746 739 28 33 55 64 60 70 13 14 98 118 107 131 7 9 56 71 85
106 11 13 11 18 -1 28 -12 10 -22 2 -58 -46z m-2993 -2222 c-13 -11 -236 -84
-241 -78 -4 4 219 83 241 86 6 1 6 -2 0 -8z m-255 -79 c0 -5 -22 -15 -50 -24
-27 -9 -50 -13 -50 -9 0 4 21 15 48 23 26 9 48 17 50 17 1 1 2 -3 2 -7z m-112
-37 c-27 -27 -788 -195 -788 -174 0 5 10 9 22 9 40 0 417 80 586 124 176 46
189 49 180 41z m-800 -180 c-2 -2 -21 -6 -43 -9 -23 -4 -52 -8 -65 -11 -14 -3
-47 -7 -75 -10 -27 -3 -61 -7 -75 -10 -14 -2 -61 -7 -105 -11 -44 -3 -89 -8
-99 -10 -98 -18 -826 -26 -1001 -11 -49 4 -121 10 -160 13 -38 3 -77 10 -85
15 -10 6 -1 7 25 4 254 -32 967 -38 1200 -10 28 4 81 9 205 21 30 3 62 7 70 9
8 3 40 7 70 10 30 3 71 9 90 14 31 7 57 5 48 -4z"/>
<path d="M6495 4446 c-21 -44 -69 -146 -107 -224 -37 -79 -68 -145 -68 -147 0
-2 -29 -63 -64 -137 -35 -73 -75 -158 -89 -188 -32 -70 -160 -345 -222 -475
-26 -55 -56 -119 -66 -143 l-19 -43 98 -63 c111 -74 261 -152 359 -190 144
-55 373 -109 508 -121 127 -10 342 -6 440 10 17 2 48 7 70 11 143 21 431 119
432 147 0 13 21 220 28 277 2 19 7 62 10 95 3 33 8 76 10 95 2 19 7 67 11 105
3 39 8 81 11 95 2 14 5 85 7 157 l3 133 47 80 c26 44 44 85 41 90 -16 26 -42
6 -80 -60 -22 -38 -45 -70 -51 -70 -21 0 -23 27 -3 56 24 37 24 39 -6 42 -14
1 -28 -5 -34 -16 -11 -19 2 -27 -130 81 -38 31 -72 57 -75 57 -2 0 -31 17 -63
39 -61 40 -248 140 -298 159 -17 6 -79 31 -139 57 -99 41 -304 113 -366 128
-14 4 -55 15 -91 26 l-66 19 -38 -82z"/>
<path d="M9080 4234 c-130 -25 -141 -27 -305 -44 -55 -6 -122 -13 -150 -16
-27 -4 -170 -6 -316 -6 -193 0 -266 -3 -266 -12 -1 -12 -15 -225 -18 -271 -1
-16 -5 -77 -9 -135 -4 -58 -9 -123 -11 -145 -2 -22 -7 -91 -10 -152 l-7 -113
43 -1 c24 -1 62 -2 84 -4 22 -1 97 -3 168 -4 86 -1 127 -5 127 -12 0 -8 -58
-10 -210 -5 -115 3 -210 4 -210 2 0 -10 33 -67 42 -72 5 -4 85 -8 177 -10 91
-2 174 -3 183 -4 9 0 18 -10 20 -22 3 -23 43 -50 221 -153 l97 -56 93 72 c50
40 97 78 103 84 6 5 29 25 51 44 30 25 40 41 37 57 -3 19 2 22 44 28 58 8 79
11 219 37 l112 21 15 39 c20 49 20 49 -3 44 -10 -2 -34 -6 -52 -9 -19 -3 -81
-15 -139 -26 -136 -26 -210 -35 -210 -23 0 5 35 14 78 21 151 23 321 57 330
66 3 3 -12 82 -32 175 -20 92 -39 177 -41 187 -4 20 -44 198 -50 224 -2 8 -14
61 -26 118 -17 78 -26 102 -38 101 -9 0 -72 -12 -141 -25z"/>
<path d="M11359 4161 c-60 -46 -306 -205 -419 -270 -69 -39 -132 -76 -140 -81
-14 -10 -341 -171 -385 -190 -101 -44 -141 -61 -215 -90 -47 -18 -88 -36 -91
-39 -4 -3 -3 -16 2 -29 8 -21 10 -22 43 -8 37 16 46 13 46 -16 0 -22 1 -22 47
-3 37 16 52 9 53 -22 0 -8 20 -3 57 13 l57 25 16 -21 16 -22 180 88 c98 48
181 88 184 88 3 1 15 7 27 14 19 11 23 8 40 -26 11 -20 38 -72 60 -114 41 -78
46 -118 16 -118 -12 0 -14 -7 -9 -32 11 -54 54 -104 57 -65 3 56 32 105 47 80
9 -14 62 -36 70 -28 3 2 -3 23 -13 46 -20 44 -46 64 -62 48 -5 -5 -17 -7 -25
-4 -14 6 -144 233 -136 240 2 1 37 22 78 45 41 23 89 50 106 60 34 20 197 121
203 126 2 2 -2 11 -9 19 -15 18 -13 19 47 62 30 22 39 33 32 44 -15 23 -10 34
22 53 29 17 29 19 15 42 -15 21 -15 24 2 33 44 26 45 27 31 50 -17 26 -20 26
-50 2z"/>
<path d="M11047 3698 c-24 -13 -21 -42 8 -93 28 -47 57 -61 80 -38 19 19 20
17 -15 78 -33 58 -47 68 -73 53z"/>
<path d="M10918 3615 c-10 -22 -7 -34 23 -91 43 -81 81 -96 109 -44 7 14 3 32
-21 77 -45 86 -88 109 -111 58z"/>
<path d="M10812 3564 c-28 -20 -28 -27 8 -102 30 -64 60 -87 91 -71 9 5 19 17
22 28 7 30 -66 161 -91 161 -4 0 -18 -7 -30 -16z"/>
<path d="M10695 3504 c-18 -18 -14 -39 19 -98 24 -45 50 -53 70 -24 13 19 12
26 -11 72 -35 69 -49 78 -78 50z"/>
<path d="M8970 3157 c-59 -55 -230 -187 -242 -187 -5 0 -34 16 -64 35 -30 19
-57 35 -61 35 -3 0 -38 20 -77 44 -118 72 -116 72 -112 35 2 -24 12 -37 42
-55 21 -13 46 -28 54 -34 8 -6 62 -37 119 -70 l104 -60 66 47 c36 26 68 49 71
53 3 3 27 24 55 45 89 71 105 88 105 109 0 45 -14 46 -60 3z"/>
</g>
</svg>
